<mxfile host="65bd71144e">
    <diagram id="OCjMlm3CwazATgt3kDdC" name="Page-1">
        <mxGraphModel dx="1110" dy="570" grid="1" gridSize="10" guides="1" tooltips="1" connect="1" arrows="1" fold="1" page="1" pageScale="1" pageWidth="827" pageHeight="1169" math="0" shadow="0">
            <root>
                <mxCell id="0"/>
                <mxCell id="1" parent="0"/>
                <mxCell id="2" value="" style="shape=image;verticalLabelPosition=bottom;labelBackgroundColor=default;verticalAlign=top;aspect=fixed;imageAspect=0;image=data:image/png,iVBORw0KGgoAAAANSUhEUgAAAggAAADICAYAAACNixn+AAAAAXNSR0IArs4c6QAAIABJREFUeF7svQd0Xdd1LTpPu72hdxCNBQR7FYtYJRZRlER1WcVybNmxE/sleUl+xsh/4+e/vCTOf055Sew4sWNZtqxidYtiFSn2ToIEQQIgKtH77fXcc84fa1+AAimQACgCYjnbAyJN7LPL2m3uteZam9u8ebOmgUecNyDMOxESXVA4ETw06GlsEuAA0M/gf8f2tZ57YiWgsRmuz/KJlfrtVhutV0279fOA7QOJzWDUidM0SFoIVrkfRjUMDvFRf3uvZOS4MQr1XhHMOPWT27z5ES0sONBpnIxuczFikhUaLwI8P05V6sXqEtAloEvgNpLAeKHEMZ5lDCDIIdiiPcgOVcIld9LV7TYS1FffFB0gTOwYcA898oTWaZqKRudCeBx54AQjNHDQxji5J7bZem26BHQJ6BK42ySgQVA1SJF+ZLnPoyhwEhbFo+u5hgyzDhAmds5z6x59Tqt2rER76mzEDU5AV+FM7AjotekS0CWgS2CIBAQlBpe3DsXuo0iL1oPXdC3CoHh0gDCxS4V74LHntbOuDehNmwkIxomtXa9Nl4AuAV0CugSukgCvKjAF2lHcdxR54QoIWkyX0IAEdIAwsVOBe+CxF7Ry10a402ZCFaSJrV2vTZeALgFdAroErgYIGgGEThT1HUV+6KwOEHQTw1e2QhhAODsAEBQdIHxlA3GnVUyEKuJ+D3q7sP9LxG2du3JlKDVNA914EpLimHDYn3rSJXADCfCaCnOwA0W9h5EX0jUIQ0WlaxAmdunoAGFi5X2H16aBgAEPFUY1Bgcnw8YrEDkFmqoStRUCz+sgAYCiATFZhiRKiENASBXg0yREOAkqJ0LldC+hO3wxjFvzdYBwfdHqAGHcpt2wBesAYWLlfQfXpoJXZKQijDQhghyHiLl5TpRkWJBiN0AUOdCRx5N7rH5JhqZqiMUV5gzvDspo6AqhotWHFq+MrpgBvZwFcQYWdKBwBy+KcWm6DhB0gDAuE+smCtUBwk0I7V77hNcU2JQg8oQgVhTZsWleFkpzHLBbRZglEaLwudaAA/1PTyoSgZhIFrKiIhJT4A/HUd/hw46znTjc4EdVyAivYAMo7oiedAkMSEAHCDpAuF0Wgw4QbpeRuA3bQSYDgxpHJh/A4nQOTy3KwpJpaUh1GCHxgBoOg5MkaIoCwWQCpwfXunoUNQ1qNAqVzC8cB04QofA8PEEZJ2t78av9zTjeqaKNd0LmdYLwbbgERmwSi57KAWaBR7LAwSRyEDhAJROTqiEU1+BRVMjq6KM16gBBBwgjTrwJyqADhAkS9J1WTQIcxJAvBrGx2IRnluRhdmESLEaRcQ0ivb1o3/spHIVFiLj7kbFkGSS7XWcpDhnoeDAAz4VKRPv6IZjNMGdlw1FcDAgiInIcl7uDeG1vI7ZeCqJWtiPKQIKuf7lT1oqRAxwGHpNsIianSChJNSLTLsJi4KCogDusoMUt42JXFI2+ONrCCmKKBnWEDuoAQQcIt8sa4NYNuDn2p82E7sVwuwzLV98OSYtjkhjE5hIDnl+eh7L8JBgNAju+iJDoq72Es3/3N8hesQq+xgZM/4Pvw5yRoQOEIUMX6elG8+8+gr+pAQaHE8mz5iBz1WoIxkS8EUXV0N4fwqt7m/BWhRf1sg0x3vDVD77eghElYBY4TLGLWJxrxv1FZhRnGGEz8ojFNRD1hOcAg5gAe50+GWdbI/i0NojqPhk9UQWxG7z/MAgQismLIXxed3MccTT0DOMlAW79lpe0cud69OkAYbxkfMeVy2kq0hDEpkkcvrVqEuYVJ8Fk+NxOzgDCpRoGEHIfXAdPbS1m/OCPYExJueP6Op4NJoDQ8vFHCLS0MO1Kyuy5yFh+P/gBgEB1q6qG+s4A/m1nHd6tCqOLc0DROQnjOSxfumyryGFOigFbyuxYUmSByHNo6IuhujOKDl8cwZjK/i3FKmBSkoTpWUak2kTUdUexvSqAfU1htIbiDCQMlwYBQknfER0gfOnR+moLIFfn8UgT5c3BrX/8Je2MYz10DcJ4DONXX+agwnos01RSI1hkDeKPH8jD+rlZsJqlqxTfNOnD7W1oev89pMydh1B7G/I2PQzRavvqO3wbtSDm9aDv1ClE3f2Mo2EvLIJz6jRw4tWkxKis4Eh1L/5xZyMOdkvw8RZoYwgoQWNMvhDkMzFRiezsZp5jN+WwAsjjtBEO7c/NzOVr5UFiJdMAUWmpzeSOOtq1QfWT5mBWigHPznZg5WQbenwxfFIVxJnWMC5741DIDXigocRDsBsEzMwwYE2JBfPyzegJKHjvrA+fNobQHlFY/dcmAgimYAcmU6CkiK5BmKg5PR710F45HiCBeYtNQPrSAIE2CgvPsYVDG5Rb1qBOwGYxkmzYYuY5ENqnv3vjGqK0Yu/CZOAAu8hD5IGQoiGgULwCwMhzcEgcJJ5DQNbgVVT2tO2NEmkPsuHD89ON+MGmqchONjOC3bVJiUQQ6eqE5HBCiUZgSksHJwgsW1xREI8rTO4GgzTs94PlKYqKWExmi8hoNEAQJmbiX9sfql+OK1CJcCkIEEXxuvEcEnnjiMuUl79uH9V4HLLHAy0eZzpnwWKBRCDqGnnSmPT6I3j7SAv+5WAvGuM2xEdJWqT1l2zgYRN5BGQVbllFfIQxpm9cIg9JSDAeqH5ZpXmTINaNtEpohFIMPOZnGJFsFnC0LYLLwfgNbesS2evJFZbj4JU1xEaaiEMGiNpoEzkkGXhEFA0eWUXsOoZ8ykuafdqTiDBIhzUdwvQdrQvaE6Y6JZhEHu0BGe3ECxipwwNtoXVWZBMZONhUZkerR8bbp7040BqGN6bBIfEoTZWQYxcZ1+B8dxRNAQVGHpiaJOGhKTY8WGpDuyeO1056sK81DH/8i/ImgGAMdWBKrw4Q7vTt+p4BCALHwcaDHTa0AOkwor/bDTympBhQkmpAf1jBxzVBdEQn8i4z/BSiw3FmsoQVBQkV4M66IC64YzfcPGnjo77RZmugTfw6fDG6JdCGE1Y09hgrZaUNySokZHOjlzDp4I6oQCCuso2JqqDNk9pLfw+qiVvNaBN9k28RsK7IiiyniJOtERxpi7B2FNpFLMw1IcMuoqorit2Xw+gnOvUNkqTKWGh2468eLcGKGRkw0ikyXBpAxixSIEUMHEC0iqKgpa0LNZeaIIoCFi+cBZvVPGwRxO7v7unHiVOViERjWLFsHtLTUsAPXsFGK4RbkC8cieJCVT26unoxKT8bUycXQJKGdz+ktl6qvYyqmkbk5WRg1ozJsFotwwKKRACpxC2VAa3raAbkuIpTdX343zuasLddgI83D6tFoLLogKf5mZirHB4osmJ6hhHV3VHsbwqxuUn56Gbvi6tf0CykSzw2TbZhcprEZE1cCCLTHW6JoMYrM5Bwo0T1FttEfHuRC6WZRvzDZ33Y1xG57ryl/HkWgR2QZKd//7wfdSFl1DcrAw8syzIxlT7N4621QXawD3v75oB0A4/F2SbMyTHBYuARiKrsu4quKKwSh83T7HCZBZxoDqG8I4IAeRrIGgPXN+q5U+SwrsCCV5YkgfbD/zrmxu6mIPpiGttjFqUZ8Y2FTszONSEc0/D6KQ/eqwmgP6bCzHGYkWzAi/MduK/Qgj01Qbx2xotanwz5mkp1gHALFvRtUsQ9ARAkjkO+hceMNBMLkJNk4ZFiE5FuF2E38TAKHMIxFccaQ3j7vB+Xo7T4rx4hOgTpEKUUGOMheDNjTYf1qlwTXpjvglHk8B9H3PisPXLDzY8dqlYR9+WaMSlZYhvxcMkfUVHZGcHpnhhb/CaBw4JUAxbnm5lcWHDd4XaagfLqe2LMDtkUjLNs2WYBs9KNMIscKnuiaPIrCI9S20FFljklfGeRC1Myjdh6wY93Kv1Itwh4vMyO+dQmq4D63hj+cX8fznni19XwUJREixLEo9ky/v7FWchJsY45KiJpA06fvYjP9p+EKIn4vRcfRWpK0nUBQntnD/Z8dhzhcBSbH1qJrMy0rwQgeL1+fLLzIKovNWHBvOl4cM0SmE3DP15GYOL8hUs4deYiSorycd+iWbDbxi6roUKhjaTDHcZ/fdaI/zjpRwccwwZRIriWbuQxJUlCkklgB+7jsx0ozTRh36UAanuisJsEiAKHs20R7Lkchid+NSjMMgp4foYdc3JNsJkE5CVLaO6L4denPAxE+oc5eWltuEQOBoEDUVUnOUT8wfJkzMox4X/t6MbB1ghz7aOFT7f7EMV+UMG0CgRm5qZI+KsNaUh3SPj9N9tw0i2PuKxpu0gSObgMPDZNteH7K1NYH39x3IOWgIL+GK2Tq5catXOyXcIzsxxYM9UKRdGYR0GXP46+YBxOi4iyTCPzNGjql9HmkdHli2PHpQBOdseuq2UkXEdA/NsLkvDQDBt2VPrxi1Ne1A9oTkw8hwfzzfi/HkjF/HwTwrKGH+/rx89Pe9BCYGhAC7I2z4zvLE1iAO7fj7ixpznMNBtDkw4QRpwad0yGewIgkFpucZoBLyxIQn4yqYwBm5FDskXA5T4Zv6v0o6orgtaAgpZgHKFrLqm0aHPMAuakGVgo3uPtEbSNUstAm4vKASYuodYkM0FfTGUbj0PgYCD1eVxjN++hiQDCmjwzXlzghFni8ZND/djbFkb0BhdoAjBzUwx4cpYDZTnk6381QqB+O0wCU5Nur/ThtbNeXPLHYRM4bMi34OGZdmQ7JQwGx2MtGkBKVFSyVUSKVURVZwT/Z18f9rdFmEZjTqoBLy9wYnaOGefaInjztBflPVH4BvrE1MgSD5eU6GvfEBUrtXCGU8J373NhaqYJH1f68ZvzXgZanpruwJJCC6KyigsdUbYJXvTFr7sJ0saUq3rwvfuc+O6GKXBYxu6bTwDh+Mnz2LX3KFPTf/dbTyIpyck8H0h1T7azQa0DmRci0Sjcbh8buvS0ZGZmGF5hoTGzxWBMAVLtD5Y1mJ8WI2kwqFyq49o8g2YEysNu4iIdpALL6/b48OHHn+FidT0WL5iJDeuWwSAlzCOJdifmAtVP7fAHgggEQ7BZLXA57SzPl02haBzvHmnB337agTrFDoX7ovxJzT072YAnyuyYkWNChlNEXpIEOa6hoTcGb0RlTPreQBx7a4PY1RSC5xqbA8WwKLJKSDZxmJpqxCvLkhlZ8rUTbrxbHfhCfur5JIuADSVW5DklpvZymHgsKbYi0yHi06oAWtmBn7iBt3riONEaRrVXZgc4accWpRnww80ZyHBIePbVZpwaBUDIJE3HFCumpBkxPdOEJcVmtHtkVLRHcK41go9rAqj1k93/c8nTRWSKQ8JzsxxYVJDIbzcKTOVPWgSLxGFxoRVWI8dIhU19MXQHFBxuDuOC5/raE9oDF2UY8d/uT2b73j/t78Xu5gho1J0Sz9bbfbkm/NHqFMzKNSEqa/jZoX68Ue5FTygRB6FfVlBgF/HKQhdWTrHijZMevFbhZ/uZDhC+7Oq5Pb+/JwACKVqdEsf8fekGQRvMwnwzNpTa2cbw6ikvTnZH2cEz3MWZVISzkgz49n1JyHZI+Kd9Paj3ysweSOXRweuXNXRG1KvUfC6Bw8wkAztweQF4YqYTzR4ZH1z0wxdTsXqSGZNcEj6rD6HcIyM+BCQQQFidZ8bLC12wGjj89Eg/djVHmFngeonOALLNZpt5tpFcu+WbJJ71mW4mR+pC+NlJD6p8iZtQhkFAmpkD3SSuNTGQ6SLTIeG7y5JRkGrAjgt+/NvRftQHEzeLFInH/TkmfHNJEqZnGnGhI4If7enF8V6ZyZRszI9NtmL1FCuONYbx4aUAU7FSd68AhCUulGWZ8ckFH16r8DGbaIFVQIlLgqxoqPPE0RtREtqb6wiA3p0v43vxvx4rwbq5WTBdz7xwg7V4BSDsOcLMDk8/vh6hSBiBQBjZGanIzcmAxWJGMBhCR2cvAweKqsLptKGoIAcmk/EqzgIdyHRj9/kCaO9K5JckCekpLuTlZsJqNTMMFolE4fX70dXVx/IIgojUFBcKJmXBbDYx4NDX70FTUxs6u/sZyCNtxaT8LKSkuOD1BRhAuFBVh5llUzB3zjR4vH4YJQmT8rKQmprE2tXb50Z7ew9rk8EgsjII2FzPHDGWbSsmq9h9tgM/3NWK0z4TIrzhC4870VxyijzyrQKmpxvw7HwnpmSa8P5pD040h9EXVtjtNapobA70xlQ2h67FxYO2+gdyzfjbzRlMC/iLY268etaLvmt03pR3jkvCd+5LQlFaQqtCF4TcJANz5WvsicEfVSHwHNIcAtrcMfz6hBfbGoIMbBDwvi/DiP93Yzpj87/wqxac9oysQSgwC/jB0iQsLLAgP0lidZH27WxLBOWtYVR1R+EfOFwJAHRGNIQ1lWkQnp7pwPw8E5r6ZKbxJNC09aIfnMbhsdl2uCwCjtC+0RZBKKaiN6yym76feDrDDJpd4LCxyIrvLUti3IN/PtiPRq+MZdlmrCw2w2Lk2RpfVGhBpkMAKW3OXA7jYkcUIVlFpy+ONyu86IlpeGqKDd9flYJDdUH88xE30yQO3ZZ0DcJYVs3tnfeuBwjE+CUVeJqZSHCJePt0qC8igFBmZ+q5rZV+XHbLTHVN9ktabK1hlbGEyUaabRJQnCzhD1ckY2a2CR+V+yAKQI5LQoZTYjf8A3UB/PsxD7OB0v5Eh/V0u4i/fSgDZiOPHZU+LC2ywihx+G25F3W9MXx7aTKzgf7Vtm7sbguzRTmYBjUIdCgXpkrYdt6PnTUBNHjiaIkkApaMwdTPiqVb/O/NcTCV7onGMH5+KgEQBhc3kZEyjQJcRg6eWALwxDUNeWYRz8104PlFLtT3RPH3n/bidF8M0QHtAgEkp8BhbqoRX1/kRJpdwjtnPNhaG2KakaWZJnx3WRJzl/rlMTd+XeFHV0Rhm/4gQPjB8mSsmGzFudYw3j3rRVWPjK6QggihCA0IqQm+xI2SqMqYI/bgJy/PxNyiFBZCeayJAMIx0iB8epgduiaTCURPkGUFJqMBK5bPx/Ilc9DR2YfDR8vR0NSKvn4vbDYrvvfKU+zQH2ToEjigA/ng4TM4d/4Ss5UTGqD86elJePbxDZg8eRLcHj+OHDuL8nNV7HZPi9Lj9bEyv/nSYygsyENbexe27TqEhoYWGAwGdqBTe2bNKMGaVYsRjcn44OO9KD9bfYV4yDQOchwFk7Lx5KMPMJBw7MR5HD9Zgd5+D6JRGUsWz8LGdcvhdNhuSMYcjRyJh3Csphc/2tmMPV0Cgrxp2MBJpFHKMvFsTj0xx4mwrKLNHYcnFMfxpjDKOyNwGHmkmAW2Fqs9MXZQX2v2I6DxWIkFf7EuDVYTj7dOefHjY260hpQvgEi6IecZBRiFxPqfk21iRD2agb856UZtfwxpFgHfWZbCTGVvl/vwCQMIKrsIEIfgL9elIdnM4+XftKLce/VsHM5DwchxTHMxN8uIby1JQjSuYufFILsIzM0zIydJglXiGSC/1BnFm+VenOuJItsm4muzE7b+Dq+MVKvI8nrDCuKKxswqBIgYbYYD+gMKjjeF8PY5P872R7/ACaCxI1k9Nc3G2nH8cgg/OeZGLK7iL1amYstcBywG0iwCRpHeIyFeDoXY1pjmgBZqh0/G995uZxepNZPM+LPVabjUHcU/HezDRdJcDNmMdIAwmtVyZ+S56wFCmsTjkalWbGDEnsRDPLQA0m0isp0ifGEVbV4ZkXiCIe8Nq9hZFcAHNQFmy5yVJGHTNBuzhZdmGeGyiMzeWd8rIxRTmK3faRbwYYUPPzvtQUf4cwSfa+TxjXlObJrpQHV7FF1+GUtLLDhQG0SHJ46HZtoZOieS1PHeWMIGOpAGAcLvL01iqlgfaSdiKk5fjuCzugAudMfQTOaQUUQ2GyzzRgCBNrg0I4/NJVZsKLUxde9HFwMsmtrKIgt+b0kSYnHgH/f0Yk9LiHlVXJusPIcsM8824P6Iir64ijyLiJfmOPD0fCcutEXwkyP9ONoZZfZdSlcAwrIkrC21sQ3JG1JQ1x3DvtogTndE0OCTWX0j0RoIIMwTu/DzV+Zjer6L3QjHmhhAOFGBrTsOoKenH7k5mVh632x4vQHsO3gS00uL8dSWB5Gc5EQ4HEFdQwvefm8nQqEI/uT7L6KwIIcBBFpYgUAIBw+fxsEj5XC67Fi7chEzQfz7z37L+AEvfe0RTJqUjZOnz2PfgZNwOGxYuXwBMw28/ttPEAlH8YffeRZFhXk4W1GNdz7YjSSXHWtWLmKHPgEno8mAJJcTPn8A7320B8dPVDCvBCIekrbj5OkL6O3z4IVnH8K8OdOZ+aK/34PDx85h74ETWDSvDFseWQOXy/GlAUJcUXGmvg8/2tWM7S0cApz5C6RGGpEUI48NBWa8tCgJRakGNLvj6AvEMS3TxJT8JxtDyE1OmCcIMLxV4RuWDFdqF/G9JclYXGhmY32xI4JfnvLiaEeErYvrJTJ1PT7VhkfKHAzwvnrGi4teGVOtAv7HA+kwSBzePOPFp00heOlA5jkszzHjz9emMM7St95sw7khAIEAD5kPXRKPnpgKr6xemaukfdhUaMb/vSEdFzujeOu0l+0Zc3LNDDAGwirbe4hkeag5jAZfHAUOEd9aSFwBO8ujqUBNVxTbLviYmyHJkMwEy4qtTH5HGoLYfSmAC/0y07gMZ4WkPj9dasc370tiN///OOmBqmj4y7WpeGKek5EhBzmog6tmAM8yMXZ64/jWG2042RnBinwz/nRNKup6YvjHg/246I5dBUp0gDDWXef2zX/XAwRSmRfbBRQy16AEC5tuCCuLrVgzzYoTTWHsuRRkByFtKdG4hkaPjHpmG9RQaJewINOETLuAsiwjStKNONscwfYqP2bnmPDwTBsudcXwy1MenOqOXUXOo7qJ+/BHq1LQG1Cw7YIfxakGFohkRrYJiwvM2Hrej1+We3F5gAg0FCCQieHrC51Isog4dTmMdLuA4lQjbCYeB2sTmwIdtu7Y8GrFa6fdSBoEZodMN+LrC5yYnmVCZXsE3f44lhZb2G3iNye92F4fRBfVd539d9B5goihORYB64sseHKuk2lOXj/pZTbiPiKBDjRuqIlhZo6Z2VUJCE0hFzSrgOqOKPZcCrDNuiNy436KahxzxS789BtzMKsw6UtoECqwddt+hMIRbHl0LRbMmc5Y/6++/hEK8rPx9BPrkJ+XxUBAXX0rXn39Q/j9wasAAh3ETZfbsHX7ATS3dOChDSuweOEMeD1+/N0//AIGScSLzz0Mu92KHbsPszxrVy3GksWz0dfnwU9+/lsGMAggFBflo/pSA97/aA8DJbNmTMH0acXIzklHssvBQAdxEN7/6FMGCEqK8/HwxhVw2Kx454NdqLrUxDQI9y+bC6PRyMr97OApbNt5EAvnTr9lAIEedTp5qZcBhF3tPII8eX9cDdLIXEdseTLXkUapvCWMMy0RpNoEbJnjZHyEms4YjjUFcbghhPM9MWaOItPa0DlDc3VDnhl/sjaVrSdyvctPFrG7Ooi3Kn0JLcIwc5TMbrkWAa8scDFT2/tnfXiz0of2sIrpDhH/c30G0ySSG99+cuMjgCBwWJljwp+sTmXmvu/8tv0KQBh0mXyw0IJZWUbsrQ/haHuEEfcYgdfI4/nZTry4yIXPagP4+VEPO4hJW+eNqYgodEEnF2YkXAY1DSUDHISFkyxodccY94eACWk7g9GEFsFs4FGSkQhgdLE9gl1VfuxpDKHxOv0mD4ZHJ1uZ1pLy/9tRNzPnvDjHgY1ldljJ1dTII9slsT8JHHR444wLQmu/y6/gr3d0M87ExiIL29PONIfxT4fdqPN/roWkZa0DhNv3wB9ry+56gEACIaIgbUwJN0AOk+wCXl7gwgPTbPjNSQ/eqPAxNj+taELf9FdSrTMGMw/YeJ75468utDD1PHkBfFzpw/pSO1vcH1/wY39zmMVQuHZPSpU4zEk3QVZV1PXLsIo8FueZ8PRcJySBY+TDPS1hBK/ZzQY5CC8NkBTJJammL4bZGSZsLLUx1z8KbvKL0x40BBP2fHYjJxfOIYfv0AmRJPHsNr9l1vAmBtrKiauxKNOEp2cnCIKkdWnsk/HqMTe21QfRGb0BOBhwYSOzDPlqr59iY5swmWO2VgbwwcUAGvxXu0UNAoTfv49czkzYftGP7TUB5DolrCmxMk4D3Zr+9VAfKjxxNi7XS4IWx0y+B//f01OxckYGDFTxGFOCg1CBHZ8eYZqA737rKWSkp+D8hTr87NV3kZeXhacfX8dcCQklXQ8gxONxZlbYtvMQlLiCJx5bi6lTitDa1okf/ctrMBkMeOHZTezW/vH2A4wg99CG+zFjegkuX+7Az159D8FQmAGEqVMK4PeHcPZ8DXNl7O7qY+ducWEe5syaitJpRSwvmRgqL9Ri4fwZ2LxxBWJyHG+8vQ2VVfV4/JG1WLF8HkzjCBBIZf3Z+S78/c4WHHMbEObJ3n8tQOAwP9WADVNsDAj2hxRmtiPwnWRJBDb45Lwfb57zoiWoME3AtZwTcrkrdUn4w2VJKM02MeBNZL0nZjuYdpBIsgQoB8nAQ6eAXeSwIseMlxe54DQnyL87L4cZAJntFPGjRzMRiGr4t4Ok6Yow01YCIJjxJ6tT2E37O2+3ocKXMDEQgZFIuuQyOSPbyLyN3qsJwjfgjkseOn98fzIKUiRGwK3pjmFyigGd/jgOt0XQMWBqG2wjkRQnOyQ8M4SDQOCJgAAzKWhAU3+MXWSmpBuR7hBR0RbGrqoA9l8Oo+U67pOk3VuZa8YPViQzgPG/9/XidHcMmSYeRUkGmCUOZRlGPL+QyMIGROPA+2e82FkdgDuiMA1mZV+MmURemOnAU/Mc+OSCH/9xyssA3NBVqQOEMW46t3H2ewIgDMqfVIHkYvVAoRXPz3cy9d3Pjrmx63L4hipJ+p4RlTKN+NPVKYwg9KNPe9kNtSfL3bcrAAAgAElEQVQUR0Uv3eKHf8SExRjgEgFPyG44J92IZ+c4UJBswK6LfrxT5Wfag2vV59cCBNrIPmsLw8TzyLMJKE01srgNp7siCfvswOFMhMB0k5CIo37NWUo+1JtKbQwYDSUpDsUmtJ07RB6LMo14eaGTqTHLm8P4lwN9ONgdu4pIOShXAlFkp6VgU8mmhM11zWQrFuSb0RuMs43kk5ogLgfIA+HqZg0FCKRipk309fNe5gOfZuIxPdXIYlYcawuj9zoyHmwHPetcoLnxZ6sz8OKqQlhNY3+GeChJkXkxvPI0UpJdOH+hlh3aeXmZeOrxdUyTMBQgEAnxj//wBRQV5jKPALL9ny6/gI+3JQ7/Jx57AAX5OTh2sgLv/24Pu90//8wmKKrCDnaBF7Bp4/3M7ZDiKmzdvp999wfffhZTpxZCUzVGZOx3+9DQ2IrKi7VoaGxDdnYaXn7+EeaS+dHWfcyLYdGCmdi04X5EIzH8hgGEOmx5ZC1WDgMQFswpxWOb1yApiQ7XsXM2hu5t4ZiCj0604m93taMmah32XQYab5rbBFbTzTyemOVkIPJsSxiqCmQ5JRyoD+KN8z50DxD4hk5jsusPBvshsh69EUDudr1hBVtK7Xh0lp25xP7qpAcnuqJXuTySx9CMZAlfn+tkHgIH6oL4ZbkPl7yJG/CCJAk/fSabEfL+564enO0j23qCpLgkkzgIqUyr9Z232nCmX2ZE0VyrgMen2fDYbAcj//30iBtHOhOEZ+I/rckx4X9sTEdPII5fHvNgWoYRD5c5sLvajzfO+dAUVMBxGkjjRlY70l4QQHhutgOLJpkZN4O0B6QlcQcVTMs0oLw1glPNYSyeZMG0TCN2VPlZ/JbOqDIs/4DGiIDHNJeE7y9NYvyHV4+68R5p82IqSKa0N63ON+HP16Zibr4ZEVnDT/b349VTHgYAWNugYV6KAX+wlHhRBvz8mBvv1wS+YG7UAcJtfOKPsWn3DEAgLUK2hceSXDOenO1gMRA+qfTjtxf97OAaKbgPgYtSh4QfPpzODvf//l4Hyon9rGiMSHcjwiBTt5t5LMg2YeM0GyalGFjMhXfJvdKTYPpfm4YDCINujrTY6UCmmxXdfAZtjnTTITLViiIrix1wbaILdUmagalxt1f68dPjV5MUB/PTJk721FX5ZnxzsYu5Pr5X7sUvzvrYjWdoIlUpqUQXZBtRmGxAlkNimwdtaqQ+PtgYwuGWMDpDic3r2p4OBxB+XZFgorNnaAeIpdTPkcJX8ZoGh+LHs8Uc/vq5mUh1EklubOkLAOHbTyMlaWSAQJ4HL33tYWYOIJ4AuSherG7E7z7Zh47OHmZeIHNCRcUl1DW2IC0liZkY6GD/mOXpxZzZ09hBXXmhDvUNLTCZDHjlG09gyuQCFgDJ4/EzngJ5Spw7X4O9+08wMPLfvvs12GwWfPRJAiCQmyNpI0YCCJ9sP4DSqYV4cO0S5GSlsTJu1t2RFDt9gSh+vb8J/3yoH60sDsLwGhwaczo8KfAOkVOJOf/qETd6/HG4rAIu98dwsYdIsGDRFUm7R+vTInAoskvYMt3G7PNE4HvthAf7WsKM0zKTAvnMSxysBBzePuvD2d4YU90T/Yhs+4+W2rG+1Ibm/hh+dcrLTBh0KNNcm5dmxI+2ZKK2N4Y/39qFS75EdEXC2mUuCX+1Lh1l2Ub8ZH8fU+ebBB7LJpmxeaad8W7ePuPFB9WBhFZAAyhew7fmOfDEfCcO14Xwq5NubCy142sLXIwH8F6FH5e95MbIM4JkZ1BBjTuGfJuIbwxoOIPRBJ+hsi3MODkbptvZ2jpcH0SaVWSmuN9d8OP9SwH4RghBmWbg8cx0O15aTGTjGH56uB8ne2JMS0KaEAIzpCWZP2kIQCj3sv4QkTLfxOPJ6Qk+UXVXFD896kZ5byxBJB6SdIAwtj3nds59TwAEWvyTTAKem2XH8mIrbEaB2bU/qvKjxiNfIcyNNFAFFgH/zwOpKMsy4cf7+7C1Loi+keLCkg+2WcCT021YXmJlQY8O14ewoy6Ii26ZRY0bDlwkAiWZ8cJ8J+NOkJtjIlDS9VtJhympXmekG5mf9LUcPYqLMDXDiMlpBhxtDOH1sz7UBijw0BfLpG/Jo+HhyTY8OdfOyJx/92kPznjiV0WQo/CzD0yy4LEZiRgKZCet6Y6i0R3DOfLTDsQRjF8/uuKVQEmLXaxt5FHyeqUP/deGZxtpcAaU2ZISxSqnD3/zTCnmFCaPmYcQk2WcLq9ipEGKpPiNFx9lhMSL1Q349RtbkZOTjkc2rUJ+bibjYTQ2teHNd7cz98Tiwlz2+0XzZyAnJ4Md6ERsJI0AAQbSSJDbYW1DC3NhfPmFR5j5gjwYjp6oGAjtbGBAorOzh7lZbtm8BqXTClF5oZ4FN6J4lURMJJdH+pk2pYjlIVPF9t2HWATIeXNL8eCa+5iXwrsf7EZ1bRM2rb8fSxfPZnyFYDCMQ0fPYsfuQ7CYTcxVsqy0GDNnTIHdRhEVx07uJG3chWYP/s/ORnzYoMDN2W74HgMB7klWAV+f68JDZYnDnn4SQD0xISMymOvj9oYg0zzNphgfM+1YUWJltnECB582h+EZ4OCQaWtxphHPzaGYHCZ2iL1Z7sOJ9gimp0jYXGZn5gwyWX1Q4cPZjghmZhgxK9vENG55LpGRBz+7FMQ/HOxn3kKDKcPA4+kyO55hmkeg2S2zQGRk6iOSIanid9UF0eCPszVKMiSTxV9vTGecoV8ed2NvQxjzshPto6ihxO8h1b1R4iFwGnMBfu+in0VJJC+GRZMsaPHICEdVRgjcXhtAvlPENHLV1IDClATY/7DSh4/qgiMCBNof5qUa8M1FSZiVa8Se6iDerfCi2puILVJgE/FAkYXxnCKyytyvT3RGmGsx9Z94FuSWSkTtX5/w4IMaP7ojXyRF6gBhFJvVHZLlngAINBYEEEgFSfa8mp4o2zTo8BqgHoxquDINPF6em9h89tcG8EF1EF0jhP5ldZsFPDbNxkwTFOzkdFcUrUHlhm8rEMGRHlWhMLTkrbftUgAV/Vezha9tNG3rBAJI5U9/v3abp/CqueS9YROYeYJcMil+w/W0H3RzyjILmJFmhIkHI18RB2FoIs1MIZEnXRLjVPSEFDT74ow4SS6jI53ziSA2IjZNtiLHKeFYcwiftQwfDW80gyRoCop4L7692IVvrS2Byza254fJNZEIfxRCmVTIBQU5zKvA5w/i8uV2mM1GZGenw2ImAp7GDtvm1g6EwlEWRItu/RRbwGG3MjMD3fxb27sRicSYdwHFJvjdtn0MdHzr5ccZ0KD6iKToD4TYgc08JCIRBkCys9LgdNiZ22NPj3sgwFGYja3DYUVOdgYyMlKYCYI0FUSWJC0EAQ+Kz9Da2sW+oTaRqYSACsVU6Ol1M60F9ZeAS3KyA+mp1w/0NJLsA2EZH59qww93t6IqaofMnn2+MdAgtfZUp4h5GUYUpRiRZiNXZJ5xE4g03O6No6I7inO9MaYiX5lnZiYyKndXjR97WyOM6DeUvEgcAwpo9tBUG9JsIvNIOtwaZryatVOt6A+r2FsfRGVvjBGOKBbJg1NtyHElbPx1XTK2VflxuCMC3xC1ItWfaxExL8uIyckGFnGUQiC3e2WmBbhIAYsiCvPCGWxPvlnAlml2BiBI49ASirP3Dqa6JGQ7xIFAZon1R27LrdTffpkFLZriFOEykZsnBc4CwnENzaE4O6i3TLczEwl5MpD3w1tnfTjcnuBL3CgxTyUDj9X5Fryw0Mn6vK8mhK1VflT3ywjFVVCsFJtE4auRAF6ahlQjjzWFVmyZY0emXcSOi0G8fs7LTDPDrW8dIIy0Wu6c398zAIEOzRxT4gEbsrvRWwIjmRWuHUay1RHKTjZy6IuqaAzGE37CIyRS31EsBto66DsiJI5UN93g6QEj4kzQwiY1H0UhHGvsg2ubRrce+qHDh5QfI5XHuBPEoSBzBhE3r/mA2kZ5qEy63ZK6lvo2CrFcaRqBoUyTwLxL+qMKc9UaST43ErlVDePBtDD+dFMJFk5OGTNZceiiGLTL079RtL6EKxgFx0ocfuzfSZhXyJPkn55434EOYIqTYDaZmMYgHpex79BpnK+kYEYlePKxB+Fy2VnewYeWqD7SXAwWR2UNRm6k+ulwp4eWSNaSJLCASkOjJNLw0O+u+jeKyzFQzqDcBvsz8MoC69fNchAoHHB1qxf/tKMBH9bL6OPtuBKOc4S1QSDUKvBIMvJwGhKPIdFhSQciuQuyNz/UxByjOZJpFhirnh5XIpX6cCYruimTB42d3A7DCvO6STNwSDML8MkaOgbiazANgFFAlpXycmzOshgo1ymbvSFBzyBLiUBkskKPuyWCozFS8zWNoYBs9G4E0RnpDRHaK2gdUTnUz6GKGhpvmkeDCskBh6srZVLRtCbIjDjZISLdShE0wQAPuUZS+SO5AdNQUN05Jnr7xILHZjtRlJrwGjncEGRBl9r8ccYzInlTH6enG7Ew34JlhRZYTDx2XiACqQ8V7utHbdQBwkgnwp3z+3sGINCQDBfMZKxDxW7mAwfsSIfr0LJvpu6h96+x1DXWPt0O+W9lX8mbIVPz49lSE37w0BTkplnYhjyRiQ7y2vpm7Dt4Cl1d/cy/n8I1k9o/MyMFjz68Cvl52V/Z64+3ShY0L7s9Ybx18DL+81gf6hQnYtzYyaFDNV5D5/rQvw+uvUFvo5Fuy5Sfvk+ApoGXH68YMBJfXylzoDCG9UYQzljm6s2s+5HGhg7voeWOps1Dy2SBqug1yywTHpvpwLISKzNx9IUUtLvjCMYUFleCtK1kNiQT5+V+GbsuBvBRtR+1AdKUXF9KOkAYaQTvnN/fUwDhzhkWvaVfVgLERZhhDODlRal45v58pDlNEw4SZFlmZgMyDXR09DBNQG5uOlJSkpit/2YJgV9WNrfqezojfKEoPjndhn/YcRnVsgMRwXJD7sGtqlsv58tJgPSZpI3INQu4v8iMBfnkEWFgURvJFEnHf4RiwvRFcb4liqOXQ6joibE3aEbSVOgA4cuNze30tQ4QbqfR0NtyyyRAW5xVjWC2PYKvLUjFpnlZyEq2QBISEeMmMlHQJAqhzGJUiIkHn+70RL70Pd4I9pxvx4/3tOJc0IywZBu1aeFO7//d0v7Ei5M87BK5FYvIsossJgKBAOIptRORMqbBHVfZ+xgjeRKRXHSAcLfMjoQJlX5udZqoPZBb//hL2hnHevSnzYQijP31vlvdcb2820cCgyBhqjmCTaV2bJidgdJcJ2xmkalQb4atf/v0buJbQvsEeSuEYnE0dgaw53wnfnWsE5eiVh0cTPxw3NIaCTMT74E4FoMGoohGQePGznvSAcItHZqvtDAdIHyl4tcrH28JEEgwKhGkcUEszTXigdJkzMp3YlK6FXYzPd+dIItNsFJhvLt9S8ofvDcMAoNgREZLbwgXWjzYW+3B8dYI6qMmxASTrjm4JRK/OwohgGAKdWBy71HkR85D0GJ3R8fuwV7c+QBhy0vaGaeuQbgH5+7ou6xpoKegHYggU5QxO9OAmTkWZDlNSLYZYDeLzEWTQIJADC49MY8NiozI8wJCkTj6g1F0eKO42BFm8QPaIiICvAUyBJ1zoM+XqyRAAMEc7EBJ3xHkhc9DxMhPY+sivP0kMF7ggHo6qL0dby0ut27Li9pZ5wb06SaG22+G3UYtYox2TYWkxWGDDBMnwyZo7Blwh4lnsSMoiQwo6CCBYiiEIjI4UWLRDMn9zy9zCGsSApAgk6cCd+dzKW6jKXrXNGUQIBT3HmYAQdcgXD20Q92kb9Wgj+dhfqva+FWUwz245QXtnHOjDhC+CunfgXWyo5+RbjQIUCBpKsgMwREZZ8CFVYcHCRERoNI4nv3EwUOh0MmM4a5L6A6c+hPW5BsBhPEgvE1Yx25BRYPg4FbfnO9EgDARc0EHCLdg0t7bRdx6hu7dKU8dFNyd43rre0WPpknBTkzuPYJJ4YqrNAgTcSjc+h7duhJ1gPC5LCdiLugA4dbNXb0kXQK6BHQJfGkJ8KoCMdCB4r6TKIqc0QHCEInqAEEHCF96gekF6BLQJaBL4E6VAK/GYfU3o7jvKHKiVRC0z0mKE3FrvJ3lpgOEOxAgJOKGjZwSuSZO1Trado3ccj2HLgFdAroExl8C9OS6FAsg3X0eBf6TcMS7WOCkwaQDhET8FZ2DkAjCNN7pS5kY6HkWoxaAWfNCQoSR1a6XFEiIwoYw50Sco4BM4wcU6C0Bo+aHBT4IIB/i8RfkeA+UXr4uAV0Cd7cE2LsWigwp1IXkQD0yY3UQtehVnf6yhwKnCKAfqOO3/47nKOkahDtEg8BDgV3tRqZSjhS+HGahC+AGn3UZOkUI/fKQVRt8SjG6MR+9whTEOHru91ZPUo0tqCSlGRlaOVx8NQxCPziO2nCr6xrPZaCXrUtAl8A9J4ErkbVkiGoMAuSrLl2DD2fdlFw0DZzKA2EJ8JjBh03glDvPzVYHCHcAQCBNgUV1I0c5iBzjYdhtfZAM8euqfWhiqwqPSNgITyAPndpytAsLEL3FIMGgRZCk1CBX24dUSzXMligESZ3wtwNuagHrH+kS0CWgS2BcJJBAHmSpiIc0yH0C0GOFEDLfcZoEHSDcAQBBQBxpShUK+Y+R5myA0aKMKuaLqgCRoAivNx3N6kPoFOcgylluye2eNAfpyiVka7uQZquCxS5DEPnP36kdl4WnF6pLQJeALoE7RwJqXEPMq0JuM0Lot4OTx/60+FfZWx0g3AEAQUIMOcphFBs/hNPlgzgGSoHGQIKAfm8e2tS1DCREOOuXAglGLYykeB1y8SnS7FWw2qLgpQFw8FXOZr1uXQK6BHQJ3E4SoAekAgqi7SL4bjv4iPF2at2IbdEBwh0CEPKUgyg2fQCnKwCenjEbg4mfVF3RoIg+by7alfvRIS66aZBA4CAtfh5Z2gGkOWqY5mCs7RlxVuoZdAnoEtAlcDdIQCMzg4pohwCu0w6OAMIdxOHWAcIdAxAODwAEP3jSUo0BIAzawwgk9Hqy0KGuQQ+ZG2AaKGikwhJ0HQNiSIrXIkv7FKn2OlgdXw4c0BsCPIXGhQaTZIbAGcDzHGQlhqgcYQ/vGAQDYkoMqhqHUUy0NxIPQeQliIKB5WVvFggG9qesxiDx9OqhiGg8BKJLmkULFE1BLB5l+QROQEyJMhkaBCMUNQ5ZlWHkDeA4AVElCp7j2O+o/LgqwyRaGLciLIcgcCIMohFxRUZci7M2kgcM1U31SoKEaDzC2mMSzVA1FbF4hLWX2h1VImzWGQUTqzt2pc0CayMtSqpb1RTIcSpTYGVQXV+WVX037Lkj9YHGYnBGD78XU/DlxAsW2khTf6TK9N/rEriRBAgghFWmQUgABIMOEFj0eO2O28smYu+9KTdHMjHkkYmBaRBuDiB8DhIEeH2p6JenIIhcqCDvBmLXXm+npM1UBqfFYeZ64BRq4LK1wWKTwUs3t7vS1kyHvdOcDKvRhkjQi8XTHkRWSgH7t4aOSpys3IlkZwYmT1qI2sun0Otpxdxpa9lBeapyB7LTSlCUPxsNzecQCLsxOX8+ghEfGlsrUJAzA1lpRThe8QnkeBTL5m5Bv7cDVfVH2e9Sk3JR3XgcPC9ietF96OhtQmPrOZQW3QerxcXyWc0OlEyah8bW82jvrseimRshSSYcOv0e+57yNndUoc/ThpL8uYgrcdQ3lyMrrRj52aU4W/MZQiEvFszYgEDIg8raQ5iUU4ac9Mm4UHsI8XgMc0tXo9fbhZqGYyjMm4MUZyZqL5+GQTJhSsF8+EJu1LVWIDk5B4FoAA291QjHguzhAfVOuoaM8xHCAIEKqOxBBi5BBCNkqAG8cDVznLKoqsL+neM0aLyWINXSz51HMh9nyerFf2kJDAKEDhFchw4QBuWpA4ThZ9ZXChBYk2jCRoFIWEIsaoBKPrq0Q14fH0BTFbaZGkwyTBYZolEDfxObKc/zMAgmmHkzyrJnY0XpQ3DChIvbfoWZy7YgObsIoiagp64CNe/8DI68YuSv3ozmfVvhaajC1Ce+CSgKLrz1Y6TNWIScpQ+i/chuhHo6kLfiIUTcvWg7+imyFq9G6vR5uPD6vyIeDmDWK38Bb1Mdmna9g+zFa+AqnIamPR9AEA0oWPcEeqvOou3oLhSuexLmlAw07XwX5uQ05K54CO3H9qCn8hTKXvg+RLMFZ//z7+AqLEXhuifQeeoAvE01yLv/IShyFC0HtyO1bAEy5y9H7UevIdzXjdJnv4twbxfqP3kL2YtWInXmQjRsewtKNIwpj/8evJfr0PTp+8hdug6OSSVo2fcJRKsdeaseRsDdifaGChQs3wTN5cSuM2+h3tuAOFT0hXoQkcNM+3LPJpWY4hxzHzPBCglGmA02OCwuaCqhBg4WsxXckFccFUVBIOyFUTTAH/EzUClrUUS1IFRBhkbL4Sbm9j07BnrHbywBHSAMKx8dINyuAGGgXcRLYJvoKNIV7EA4gh8b/2GweAECUuzpWFCwHKmaFebOfkxNmQbJHUDnR++AVxQIUoLAI/u8iLS3QzCbYUhJRayvF0ooCGNWNkM4kbZWiHYHDMkpkPv7oMaikFJSockyYu5+SK4kiDYHwq3N5O8Jc34h1HAI0e4uSEnJ4C0WxHp7wBFgSU2HEvCx74xpGeANBpaPN0iJut39iPt8MOfkgxMEhJobIVgtMKZmIOb1QA2FWDvInBDr62PtkpwuRDs7oMSjMGflQZWjiHZ1QkqidjkR7emkayxMGVlQImFEe7phSEqBQO3q62X1UN1009UEHskLlsJQVIjmikMwrl4NvrgIe6u3orz5GKLxKFR2Xb53EoX/UBUOfFyEQ0hGXloJFk1dhsm50+GwOMELUkKNy4GZsIZGgaONicxVBBrIvBMI+dHQcQnltcfQ0FUDd7QTihADiAisJ10CX1YCOkDQAcIY5tBXr0EYQ2NvVVZRkOAyJmFGShkemfoY+Nom9H/8AWL1DdDCYcQDAWgKaSkSNRJw0dTEoUeHeALIaOzv9Cdt8ixGFP1/euKXPXtMfx/4HdOIcOzQhqqxAzdRrsK+YbbnoWUMljmoa1YHyqS6B55aHryFUjvBU+jRgbrZRZU8OAbqptKHq5vaQiFLKRTLkL5d6c9A3ex3rIiBayzPgzeZwEsSeIsZKVuehDBrBk51nkKl3AwvwugKdDDOxj2hTaC5EOfhEFNRnF6G5dMfwLRJM2C3OCGJxGEZ2/Wfxpd4HsFIAPWt1Th4fheqOs7Dr3ZD4xVoYyvuVi0ZvZy7RQI6QNABwhjm8j0HECReQlHaNJS5psFUVY9SnxVKdR0CVRegBBP2dD2NTgIEdJgWIiMDWmEuTBvXozvdjN3Vv0ND7yVGtLyrE4GDmIBUUw6WTnsAy2euRWZyLowGw9hZu8MIioCCN+DG4cq9OFi5E23BRqikTUjgSz3pEhi7BHSAoAOEMcyaewogkHo32ZyCR8uewiypAP1v/Bqhw0ehBgJQZVkHB2OYOFeykvZClGCeVICUzY8hXjYZ27v2o7z/PPwxH/PWuCsTKZRkHhnmfKye9TCWlq1GqjMDwoB26Fb1mTQKgbAPp2uOYOfpD3DZWwNFjOkExlsl4HutHB0g6ABhDHP+ngEI5KKYYklDnjEDK/zpyPII8OzegWhbGzMn6OnLSYA3GmHKz4dWUoCm0iS05lhxobsC/eHeO859aDSS4OI8UqRsrCp7GCvnrEOKM525f45HIpAQigRwvOoAPjn5W7QF66GJyphdi8ejbXqZd5gEdICgA4QxTFlu3ZYXtLPOjehLmwmFyFSjSLfKzXEUVd2SLGTjNxvsuH/qepQZ82H85btQq+sg9/ZBi5Pm4JZUc28XQjwFUYSYlgr7k09CWXkftjXtwNmW44kYD3dTUgAzHFha8iA2LnoS2Sm5EITxD1nrCfRj75lPsPX0WwigH9z4V3k3jZreF5LAMAAhEYHj1qfx8NPXAyV9Pk7jIV8qfSiJmlu/5UXtjHMD+icAINBEFAWRwhGxID436iCnEfEOEPgEaFFUmbmUJ4IZCQOBLZRR+d/z4JHpyMGz838PJQET2n74NwjXXoIWj48eHJAqnZEJB/8zhgXFyIADVY03x4H5z/Pg6DZLJEkiQo7SO2QMPbpuViIuuu5fBX71MnyiVuJczzmElNCYtAg0Qcdr8t+KPiLGo8BRiudWfRvTC+fAIBLnYPwTeZFc7mrAO/tfxdnWw1CkiTM10JiI7Jl2DQp5s4xq5Y2/TG5FDYMb4m0954bpKO2RLFYGhdsY7S1nACDEWBwEB/jY+EVSHE95Dj3EbsUcGM+23or2TVQZ18qVW//4S9oZx/oJAQgUQXBy5gyYJAsqW08hJAcHj82r+k/RBY2CmUUALMooZez/pp4atjFRxMAkayqLKNjtbWdljLQ4RE5EliUDG9VpyKvzwbt7NxS/b9QyJzKe6HBAcDjYd3GP9wrzf8RCyEXQ5QKp4GW/H2owMGp3zhHLHm7T4HlIqSkwZGZDi0YRaW2GEgqNHgjdTKVDv6H6U1JhWDgPrStLcUZrRlVXBQsQNZpEERsd5iTElRj8US8b8+slBjj5RBRJAo0U6ZEiP8bV+IhzYjRtGTYPaQ80J1aXbsZjy78Gh801EANx9CVSACUlTlEoAVEUxuTpEIoEcej8p3jn8H/Bq/WMqEWgSJoUWZPABUXaJEh9M8lqsDNyLwUGa+1vhD/iuaE7K40NjQtF56T1KVOUT1Vm7Rh/N1iO7R0U/Iw2/qgcZlE/r02sjYIBVqOD3ZoCES+LIkoeSXT2jnRo0DcUJdVkMENR4gjJBIRHli+ZO42CESI/GG11QDaaMmKdg30g3yezaIUkGRFTIiyi6kjtZd8OAQh8lxN8dHwBwqjadDMTUv/mlktgUDsztOBxA+EA5zgAACAASURBVAh0yNsMjiGbHwen2YXN815Asi0Nrx/6V/QHe660hSZSOB5iLl65SYWYlb8IZoMVJRnToWgyatrPs42YNrnMpDx0uJtxvH4fegOdbNO6XqKFlGbLwsbSR1F0oQeht99HtKWZVBKjEzDHQbDbkbLqASSv2wj3vj3o3fa7xKE7iiQ6nMh87gWYi6egf/d2uA/tgxpOhDb+woZFmgaTmW1WaiQ8ehAyWBBpXCwWJK1ci+Q1DyLa2YnerR8i2tnGIvmxYCCxCNTY+BIyeZMRjvuWwvkH30W50oz3Tv0SgejwgIxuQWS7pwOe+j0pdTI2znkanZ4WHKjeDn/Ey8adDhjaCAfHmrRQVoMNRemlKM2ZjSRrCtyBPlxsP4uG7iqEYoFxAQlanEOOsRhff/D7mFE0F+QyO5akqir63T7UN7ZAiSuYPq0QDgetk9GpeQkw1bdV4bcHXsWFrpNQRfm6XAQK4Z2XXIzSnDno9rWjpr0CwZj/C3IZeoMejCpKIP5zTgWHNEcWVk1/CFE5itMNh9DhaWaAjBIBnnAswEJ2M3ddCtstmlGaPQdzCpawPDSe7e5W9Pk70RfsQiQeHvZAo7aQxo8OUfYnR3MjETuCaZYIbMSjLNz59S4GBAwmZ5SxPSQsh3G8di86fa1f2Ceo7NykAswrXM4uLeVNR+AO9jKNEB34vqg3MY+us7/QHjc5cxbun/YgOt2t2F35Act/o0TydVlSMCt/MYrTp7G4Ie3uy+jytqI/0Iu+QBfTro6UCHjNK1iO4sxSdnk61XAIUSXMvGcGXaGHLWMAIMikQdABwkhivqd+P2EAgRZ0XnIR1s96Eim2dBbvn8wFFqMdqfYMdsPzhtyQlSjCMToIFQRifpysP4DypsNsAW2e9zXkp02Bw0w3NMAX8qC9vwm9gS7MK1yGc5eP48il3fBFfMz8QO8hJN5BuJpQQHVPy5qFJ2Y8i5TyBrT/+78i2t4+4sBzFBJ3wPdfSnIh7ZHHkbrlafRt/RCdb77OAiWxhikaNOXz2wlHN0KThR3UTPPgdCD75e/APK0UfR+9h/59e6BGIuzwV8KhhGslkSRJhWuzwbn0fkhOB7ynTyLa1go1GrvGu+L6Uf3JrGDMy0P2y68gac06hGouIHTxPNRIDJxBhBIKI1B5Dv7ycqjR4UHKiIIZRQaKD2EqKETmn/0FTlp78P6537CDabhEB2x+cjFS7VlMnFOzZ2JW3iJ0ettQ13WRvYlBY9jcV4dzl4/BF/Gwg4FuT3MLlmL9rCdgMzmY5sAomRmg2HHuHbbZ05y4lYmFT5Z5lKYswA8e/0ukONPG5M5Ic9MfCGHPZ8dw5Ng58AKHl59/BFMmF4za+4HKcPv7sO34u9hZ8S5iYvC6Hg0mwYTFk9dg3cwncaJ+P47W7mYhuGl9DiaK00AHZSQWZLIlLkVZ9jwsKF6BFHsGjIIBPCfCarIzOZNmh8oIRP2IxkJQoDCZ77uwDTUd564cbqS5yHLkYdakxSjJnA6nKYnVS+v8UPUOFlSL3gOhRK7HxBGig9kgmmAz2tm6t5ucsBgdsJlsLCKlUTIhFPWjovkkajvPI8y0h1cnylOSVoY1ZZuRnZSPY7V7cbB6B9zhvi8ACrY3ZM/G/dM2gLSMpI1Ms2fBJJmYTC62lWNP5UfoDXYOC2YIBC2b8iCWTF7L5urWM2+weU7AQeJF5uYrs73h81bSHKf3UPJTJ2NW/kJMSpkCi9HG5r433I93jv8c7d6WK6CE5Ehz3SiRluzzEPTUz4XFKzE1exYau6txou4AC7RFdXlCfQyQD3tx0gHCrdwS7qqyJgwgsEUvGNg7BlmuPOSnlkDgeJRklMFpTcaF1jMoypjGVH8XWk6jy9PGbji+sJtN6tKcuVhYshKZjlzkphYylR+ZE3qD3exWUZQ+FZ5wPwIRH1u4He7LOF67D3XdF7+AvukAKkmegrXmWcg82QDfzt2Iez03RvmiBFNeHgzp6QMHtx2u5SvhWLIcvmOH4T7wGYuSSAeh7PMhWHWRRUYkQGFIS0Py6rVwLl/FQALpkQ3ZOeAtdsS7OyB7PSzoEJEjvUcOoHf7VsR6exmAIrNAzjdegeO+5Yh2daDrjdfgO30Ccb8/EWCJ5yHY7Cw6ohqLQfb0QZMHwAmpO51OpKx7COlPPw/ebIbc253QVvA8Aw6cZIB33x60/OSfIff3j+vkpgiQfGkJTqzKxlmhA7443cS+yAYlLcDassfYLZdMRy5rCru9dfk6mBo7KofgDvYxDRIdQEF2Q9OQ4yrAc0u/i9zkAnb4VbacwqrpmzAzfxEudZzHbw7/GO2ey1f6OJSINZJJ6nqCoeZLMRPun7IJLzzwHdgs9jHJMBqN4WxFDbZuP4DGy62wWS343ivPYHppMTM1jDZFYxF8emYrfnv4ZwgLPnDDfEr9pQN2xbSHsGTKWhyu2QVv0M1u1RRBlOYgC9HFcYjGwzjXfBz7Lm5la5IOPlK7Z7hyUJw+nb3FMTNvAbyhPnT7OjC/6H40dtWgqr0cbf2N6PN3McAfVQc1CAnVvSRQqGkr+yFzAz0ORrfxvkAn+kM9IG0KHcQ5rklYNnUdW9d0INJ5yp6joNDUJgd7H4X+jfaHVvdlnKzfhwttZxCid0AGDl/qr8VgwdSsuVg1/WGk2NJwuvEQDtfsZO2L44umKtqj5uQvweqyh1l/6aJCt/ELreWYX7QMOclFOFm/H59e+PCKZoDaRLd3s2SBw5yMVWWbGMCt7jiH43X7mJkizZGNwrQpTCtQ21nJ5uzgnCO9CAXQMojmhGwkS8LcINJDb1G09jchHA+ytUKAIMWWiUVFK9n6ILDMeEUA208d1mQ2xgRK3P4eKJqKUDSAQ5d24HzLSaad+ELSAcJol9k9l29CAQJNbpc5GYtL1rJNqT/QDavRzg7wus6LbMMRBIltGP2BHuy7+Am7JVIjS9LLMK9wKcpy5iErOZ/tAb3+LvQEumEz2hJ20L4GZDpzkWRLw/6qbThZ9xk6fW1f8LsnG/UkWz7u67EhY28l0NgyolujYLMhdcPDcC1eCs5sAm8yw5CTC8HpQqyjHXJ3FzhJhDGvAGooiNo/+UOELzcwVbgxNw+Zz7yApDUPItxQh0hDHdMWMPUoRSUUBJiLS2CbPR/ew/vR+pN/RqS5OZFHSsQTyHzqOdiXrWAHfNevfgH3kUNM6yA67Mx04Fy8jJXd9f47kPt6EyDGaoNj4WKkb3kKosuFvh0fw3vyONNSmLLzkP9Hfw7OZELX66+id8cnCRMJU0YkVLejITInCJpkqxh57Qg2K1I3b4H4wpN459L7OHP5CNPwXJuobqvBgTRbJtbMfBTFadMY0DtVfxCeYC/b/MisxPgFqsxunXSozMm/D99Y+d/ZobH97G+ZBmHD7KcwOasM/pAH/7n371HReoLNL7qVkg2dbqikmg5G/Sz/oIp8sE1MDjcifCkaTKoLjy96CesXPgaT0TKyIAZyxBUFLa2d2LbjIC5WN8DrC8BmNd8UQIjFYzhU8SneOvSf8CpdicBJ11goCADQbXjFtI2YlFrCAEJjdw3SndlIsWUwAE9yJRD2/7P3ntFxXdmZ6Fc5V6GqkCORQWTmnClRJCW1KHWru9Vuu8O005tezx5PP/+wZ/nPW+v9eMuzJnjGdjs9d1JLaqVmUwxizgmMAEjkHApAoXJOb+19q0iQRChQAEhKdbRKJIFbN5x7ztnf+fa39yZam+YnMQGUs5PzhWgysK1qP4ozKzHuGkVVTgMGJrvRN9GJXbVf4/oRRKfTOS+0f44RRz/vYAVDrUVxRiWy0wp4zpNhI/aBAGA4GsTVzjNo6j3PFUaF4zVI1+VCKVXyOammBzEb5GrcsvwVPt/94Vu41XuZ3ZL+kIcrnCYAJxldndrEzBMBDZrzN3rPs8G2echwTq9jIb3LurIdeKX+68xSdY3dw+d3P2bKn4DRD7b/JwzbB/CrC/+LNzCknaB+o74gIJqdlo+yrOWsJbA4huAJONE73gmLY5jHoVapw6nmg2gZvsHjlp5Vr0xDZW4jvwNiKlRyNXSqNKSpTbD7bPj89ofot3YgHIvw8QQgsmidU5uZeSUXE7EJNKbLsmtQZC5Bx2gLvwPqN1obiQmh603r/08BhKTn7FftwCUDCDSwtXIdGoo2YHXJlgdhEzQZBqw9LKghbQEh7AnnKKrzVqB3ohNn730Gm3cCecZlWFO6lVF4nmkZT4xx5yi0CgP0KgMmXKNMHS7LrEC+uQS/PP93vGukSfW49VLJNNjX8E1sNa2C/b/+NzgvnBV88LM0qu8gpp26UgVIJVDmFyLjjTchM6Vj8sRROK9dgTwjEwV/9pf8570/+gP4erp5h68oyEf2N74D/bqNGP/kN7AeP4Jo4CGSl6WlIevr34bx5b2wnzqBwZ/+HddvSBhdcksosrJg3LUHyqJlcN++icmTnzNjoF1ejZzv/yFUpeUY++BdjH/yEcIuByQaDfSr1rAbRFlUDF9PF3wdbfDcvwd/fy8M6zfx93yd7ej72/8Hvr5e3omQVkCoE6Fj4DIXSIj6fAhaLIj4/XMmlZKZzSj6T38J6c7tONj6IU60fMrv/ckmglqmRmPRRryx+ru8s+0euw9vwIMR+wAbJbJ9OoUewUgI7aN3WOi2rXo/3lzzfQxOduNM6yGUZlWzv5vcUwRE3rv0U5xrPwKDysjMVb6phBdsMoLDk30MRmk3TLtnarTD1SuN/F0HM1nTGJUIoI6a8K0tf4jtDXugkFO577kb+egnbQ6cOdeEGzdbYdBr0Ns/wjvop2EQSKdzseUMfn3uH2ENDU0rVCQjTwZ2+/JXoVKoGSC0jzZz/5K2gIATGRP6kGFnfQqlDxeRETNi1bLNWFu2nX9HVTyJCeydaIc/FMDKZRuZcSAKvSxzOVqHbuBk60EGa4KPPR0rijagIL2UNRokGMzU5SBdn8O7+aN3PsSNvvMM0hiixnUHNACjiDAALDCWYFft6wwsrnadRctgU5w2f/K9qGVaZo+IKXF4JhkY3Bm4KggpZ9En0TvfXP4y9q/4Fr/zz26+x+Jp0kdk6fLwxy/9NXwBNz66/u/oGb/PfUGggjYu5Tm1/JwNRev4mrTBKcoow7LMSlzrPssgdE3xFt78HLzxSww7BDYrU5eLzZV7YFSnM2tIbjECAAa1kcHWb5t+gd7xdnbdPOgbkYRdIOR2IZdIdd5KHq/p2iwGUle6zuJEyyfscpmzpQDCnF30VT1gSQEC7UBol0c7fKVczf5AEg+RCIhmRjQS4cnYN97BSJjCH0lERb9vLNqAytwGnkCZ+lzeNbSN3EVFVi3To0RVdlvuMeomFe/7l/8JA9auaUVLtHi8UvsmNmlq4Pq7v4frymU2tsk2Mti6hkbk/vBPEHG7YPngXbib70BVWIjCn/w15JlZaPvxH7EhJipfmZuLjNfehLZ+BcYPfiQYdzKoPNsBVVExCv/Pn0CWlcUAYuLQbwUdwpTGAEWt4ZoHsUCQCyiR6yLja2/BtGc//F0dGP6Xf4Dn/n3EYhHIs7KR+dobUFUsh7+vG7FACLqVqylGFN62e3wvBG5Gf/6vGCeBpdstFGDKyUHahs3QVFVDopzZ2CUIA2JPyCXi6+2Zk4Uh4JH1oz+Cc2UZzk/ewoXO49NqAmgntDynEfsav8mUdt94O6zucX7v5AOnBZaMdiDoY/U8Gf1QKIBXGt/G3oa3+b23jTSjOr+R6z/Q97RKAw7dfJdFjmtKtrLLyu6xwh/y8o42XZfNjNS9oRvoHm9jdT3teEkgOWjtYbaDjn2CKonEoAqb8M0t/wE7V+xLGiB4vX7cvH0PJ05fhVQiRn1NBc5fvgm7040/+v5bqKkug0wmfST+eLbxSQDhwt2T+PW5n8IaHoVY9iSlQ0Z2mbkcO2peY7Bzsf04hmy9yDEU8O6zd6It7q559EokDiQ2h3bjZNDZNUjzUyxjsEbAgwDG9e5zsDiHGdzTjv1c22HYvNY4NS7huU67bdr9kzHdULaTJ8DljhNo6rsIb1BwD07XyO30Sv3bqM5fiabuczjXdpQjWqajrgiQpGuz8acv/xfWLhy/+wkud52C02+bU9VP97i1ci+LYmmDcrDpF+izdnJ/EUD4k5f+msfUp00/R7vlLjMuQuSDgnUDK5Ztwrble9E73oFDN95FVV4DXl/1XVzvPstur23L97EQ8cjtD3G15xQDIuo7JUUfSGQMCmrzV7OmikDYidaD6By9y0LQGBd3edioL+vz12Jr1SuCPmL4Jo9tctnSuz18+/05BZJ8thRASHbp/8odt2QAgXqWxTUyNS/IRNcRI5BlyGMhzqh9EB6/C+POEQzZ+pgRoEWa1MkyqQIrl21CeXYdswVEv9Gug46l3QQtUAQ6aHLTRLk/fJt9hEJExJMLDgmgyk2V2OLPg+nwFQRa7yE2B4MwdWRQBEP6S3uR/c4fwHnzGkZ+9q8IWkahqaxC3p/+GShKofMv/wz+wQGB6tfr2eCS0fbcb4Wvu0vIt0Ahy0olG+SCH/8FAsNDGP7nv4er+Q7rGaZtpNyWyaDIzELapi0w732NQYjlvV/Afva0oE2gvtZqoC4upZg5BEdH+Gf6VWth2r0H6uo6SHR6OC+fx8D/+Fv4CMhQBAdVjszIhG7FKqiWFUMsmyuWP4aQzQbbudMcOjlXFAixGsZ9+2DZtByHbBfQa++Ji6gePqlAZWdib+M3UZVTh9ahW7x7IgNOhocYIgKQt/ouo8vSyuOGDIVKqsQrDd/EvhXf5F2l1TXGRqp18Ab7avNMxbwbPNP2GavZiYEgIED0Ne2OaRdGx9EiT9EwHDljLobL58T1nnMMXBPMwiPvJQIoowYcYBfDAagUqjkXEWIJ+gZGcOjwWbR19KKyfBnycjNx/uJNOFxuvL5vG2prKpCTnQ6lQp4USCAXw4W7x/HuuZ/CHhmDSDo9QKCwxF11b7D76k7/VdYXNBatZ0bus9vvY9JtmRZU09wlIR3Nt5r8VVhftpPdAwSqhmw97OcmTdAAhTv6HDx3yeCHp4SkCq4jHdPxm6v2sBG/2XuJgcS4e2RG400G2KzJwve2/TmMmgz8y+n/F30T7TO6Ceh4YokOrPk+KrNrcW+YtACn0DfRIURKzOIPI6BEDMLO2tdZF0W7cHKnkG1ell6B/7jnb1j/8u7F/40eugcWAQqNrvnm6u+jKLMcx+98ilt9F9nt8I21P8SV7jPMmFVm12F92Q52T3zS9HNmNKjRukUug4ai9Vhftp21GiSkvNZ9Du6AY9p7JlCyqngLvwunbxI3ei9iZ/XrrO+62XcRv7nyzzNGCj0ySFMAYc45+1U9YEkBQkLMk2nIY7qRFLe0yAzb+mH3TkCnMDBNRhOaJhO5Foj2JlBBOz7yDRaaS9lnHAwFOAyMohh6xjvY7UB0MimvP73+C9zuuwR/ZHpVPhmOUnMl9ujXIONcC5yff87lkpNpFJGgra5Dzvd+BDnt+D/+gP33ZND1q1Yj+zvfY2Fiz//9Xx5GRpAqXCrj3Tsd9wAcKBTQVNUg57s/gKq8gqMhLB++H3cvPLnAk7uCykCrlpXAvGM3dOs2MBMxeewz2E6f5PLQiSqMXJVRGk+rx9UdxZBn5yDrrW/CtGcfQuPjDEYcVy8/Er1ALIKIxIR0v0lE2dH1OAKDAM8cTWYyIf/Hf47QlnX4x8v/HV3jrU/kNCCZHAFAYoto10jupoZl65FnLOJFlCJeLneewql7v2M9AlPhiEEpUWHr8n345oYfMaAk//mNngvon+jGjupXkWMswAeX/5l3nhxzH4sJMfgxEsWJeVdLbiz6UAw72RDyh5Px67d2wxecIbdGFJCGldhW8Sre2f2H0KrmFimS9qCltQufHjqFyUkH0gw6jljoGxhGMBBCWVkhqqtKsXFdPbKz0pPKiUBsyokbh/DexX+CX+yctngT9R8BBIryILcL7e5JP0JzsHmgieecO/hwHkxNTsVzV0q+7zysK93O4J76jHzzRMXrlHruMzL4V7tOw+6zPkLl03uliKWavBWsCcg1FjEI67d28W63dbiJw1ana2Tws/R5+OPdfwWD2oT/ceRv2Cc/W00Pot/zTcVYX7YLpdnVvKFo6jnHwkGi+mdyMxArUpKxHBU5tQx2OizNHK5J4GhNyTYcWPM9Fi3+6sLfczj1A6EhrSkZVfj62h9yJdWfnf2fsLpHWEz4xuo/YD3AkTu/4bFVllnNrMPt/kucJyGh76AQRepbg8bIoZi9Y204ducjZnmmyxNBIavkMtpc9QoLc+3eSQYgJCAlMSYBBIFlmaOlAMJcPfSV/f2SAgSVTIWSjGresaTrs6FR6lm0SEDA5p5gfQGpkE+1HkRT7wWeyLTq0MJm1mTilYavM1Bw+uwco+zy2XlRI7aBwoq2Lt/L7ojfXPk33B+6wQlOpmtCmGMD3qj+BtJvdGLkH/73g132jCOBDK5ECkVuLrLefgeGdRvharoCywfvMVNARpUiFUjIGBwfxcD/+u8Ijo1NfzqKPFCroCopQ847fwBtw0o4r1/G6M//P3hJwJgwtqQTlEg5oRJ9iInQNaxA2pYdUC4rRWhsFNajh+C4dAFB68SMFD+JJ2UmMwzrN8K851WOpBj75APYTnyOsEuIAFj8JoI03QztO29jZF05Prj7Lia9lml3jbRgksiLgCEZovXlO5kpoMgWErLe6ruEc+1HH+yOiJamHW5t3ir8cMdP2OC1jdzB0dsfsqL75fq3OBzu307/LVqGmqY1LLRgE9VL52HVPGfqDPPOmvQNs0Y5BEWoNq/Fjw/8FUwc5jh7Y/3BpB3dvUPw+wPc/Ta7E6fPXoPT5cFLO9ejqrIYxcvyoddp5mQQ6Pnt8TDHI3c+QFDqnTbMkV0MlFOi4W12nVDoGwEfyhdxf/gORywkclPQO6BRQW4VSotN7FxN3ipmD8jtQ+XNc4yF7O5xeCeRm1YAq3uMAVgLJTybAqhokaH8J/RdCgEkA0bsD0VG5JmK0GW5h89uvcfiU4qiiCVKkU/pxjSVGb+3+cccHnmy+VNc7DgBl88miFWnyeBI2JbeI7EU5J4kXQCBAgqbvtN/mVlLUvg/3mgcEBggHQDlcCCQSImPSjMq8erK7zBTearlILMeU/UzWoUeu2sOsBaDxtjRux9zefUtFa9gY/kunG87ihOtv2WhILkGqE+CIT8zjMSKrC7eitXFW5jR6bC0oDC9lKMuPrv1Po932hQJuSmEku3U6F/EeOQZi5GTVsjvccWy9cw+XOo8idOtB2fQ+Dz21CmAMNeU/cr+fkkBAlFiuWlFjOwpTwHF6FPcOi1aicQjJ1p+izv9V5jGC0X8DyYxLVBVuSvYb1mVW89MAy0sFN9OoUWbK1/iUCIKC6JwnvP3j8HiHEBoCgWYeMskyiI6b0vBFlTfsSFy6HOEh0dmzWZItL6mvBKZb30T2oZGIWLgvV/CPzAAWUYGlzg27XoZ6opq2I4dhuXj9xB2Ph7nL2JDL8/KZLo/bdtOqErKGWhMfPoRl5eeKl4ktkKRl4+0teuhrqqBNCMTMkMaEI3Cef0KHFcvwdfZgbDTgdh0SZ4kYkjVGigLi2DcugO6NetBosLJ40c4LJPDGhc7zXO80ynEUVVXC/fmBpxMG8U9R/uMO8bEeyI6en/jt4QwxdFmZgQosRYxB+NEhccoG18AroCTmRPa3b697g9RU7AK7cN3cbnzJBul2oJV6BhpxvtX/4mV5Qve4omSvv/Kn2N5UT1rZ+Zq0WhMAB4xep1RDA2P499+/jEmrHb8iDQIy0shl1OukLlpHCFR0n28f/Zf0TJ6DVHZ9ImSyOjnGpfh1RXfRm3+Ks4h0UHRQ4WrOTcJGXhSvQvGR8T/JuPUO9EB2q2WZi5n8ZyQcAq82yXFPu38iY243H6CxYkE+Ck3QsIAU+heY8F6jp4gY050P+mHiEUgIWE0GsbHV/+d2QsC/nQ+Cp+cWq9DLpazb37fym8xWOkea8P9uPtpwmOZNhqGnoP0EgalCTUFq7GhfCeUMg2udJ5ktxHd53RMgpC6XSyEZCo0KDKXMQtF4uebPRdwvPkTjLmGH3yXGcnManxt1XfZzXDq3mcszpRLZMySUsTGyZaDTPtPfSZxTMSRFpsrX2YXKm1uCEgQK0psKY375sEmDuEkgECAmQAd9XVCMCswO0oWR9LGizZK5Ho9dOvXzM5MdYHMOCZTAGGu6fqV/f2SAQRG5nI1K3YJ7ZICOtuYjwxdtrDQR8MwKNN4URqa7OXQqRF7H/+bJoVBbeYFgiZ5miYdVtcIJ1KhmHiayDQhSXuQlZbPgIPU7sQukN9xOiqSJnWBrgB7ZQ3Ib5+E7eBBNrTTNsonYDIh73s/gnb1OvhamzF28CN4O9uhyM2Dec9+aGrqeZce6O/FyL//C9ytzU/s6AlkUNRB+v43oKmpRcTng/3MCdgvnkNgcPAJoSSxErr6RmR+7U0oC4rg7e2C88Z1BHp7ERgZ4twNUcp5MJ2Rp3tOMyJt8xZOkETuBYpYmDx2GK67twWXCoVYLkXj/jMj90d/jMD6Bvys+edoG2ueNtXt1NshtXtd7mrsXfFNpmYJNBKwJPNFBotcBKQxuNx5Gp6gk3dT1bmNeKn+LdYs+INeXlTJh3zszoe4N3LzgUp+IR+bNqKaqAE7a9/AG5u+Da1aP69UywQWRkbH8e77h2GddOD339mP8vJlkCZZJtof8OHC3RP41bl/hAvWafUHbPRFJN7LerDTPXP/MC51nOBIDsohkZOWzwbRHw5wBr9Rez/nNCAfuFKu5dolxBoQ3U+hxia1md1p9E6IDSDgNmDrxcBEF+s4aO56Qi5k6XLx2srvcP4CyiHQPHCNxZAUcvnaindQnFmFSc8YIhTWixj6Jro4eolCLadS65SWnYSjK0u2oDSzk3mbFQAAIABJREFUkpMz0Zwno0oahpncBrQhoAgqYkCIZaR16GTLbxlwekNPZjmktYrcW7UFa1BftJ4FmgT6SIRJ3xlzDz9ieCkqasfy/WhctpGBCyX0WlG0DjplGocftgzdZNZjKqig90FuEArfJtBDzMLJ1t9xxk/K+VGZU4+X6g6wK4iYUmKwaLzfG7r9CHtBbARF5NC6WGQuZxbmyK3fcH4QYkCSaimAkFQ3fRUPWjKAwLHC2Q0skKLwNKLnSIFOE5xihGmRIfRNQjSKs9Yq03gXcrPvEoupGovWYXn+Sky6xlnFTEmRGgrXsqjHYh/E+bZjfD7yc64q2cyJSighycVOIRb48Sb475bhu2v+CAUuCfr+5q/g7+qcfidOIiKFHKqSUkgUagRGRxC0jrMrQKJQQmo2ccZDWojCbjeC42OPMAEPmAuuSWCGurQcIoWCRYlBywjCnDlxGmMtFrE7gIyrWCpF2ONlwx4N+oViS7Pt/hkgGGAg9qGyGt7ubrjv3GQxJUdsLBFzwIaJcjlUVML4H/8PDOYo8Our/4wx5xCij6myp5uAVH8jU5/Du80sYz7vloiaJX8r+ZU5Ha1X0CIw5SpRwKzLYc0C+avpONqRUSIeipNftBaSoiytDu9s/0NUFtUmxSJMvZdQKAy7w4lwOAKj0cDixGQaGcWBsV68f+ZfcaP/rMAePEyK+MQpCETlGApZy0EA3OIcYoBONDppN6QiCddmIGMUDhELEOafrynZgVXFm6BT6VnF3z/RyeBswj3G7B+dj0TERRnlrEcgcEZ0/uWuk3x++j0BAKL2KZsl/YxAOgGW7LRlMGnSOYlPIv+C3TPOIZOPu3bIqHIGR7me3UbkAiExMn13NjcQLXRkyMlHn2Ms4rWhz9oOEndOP+6IsWxAcUYVR2YMTnaxroXWrceBCK0lFLJJGR6JBaD03zqVkXM4EDtE0RP0ebyGCDEISrmG2RtiFiY9E8yEcII0qRJZemEzRef1+p2cMZaAFLl0EvdA472uYA27Xsndc7f/GizOwflVS00BhGSm2lfymCUDCIl87uQT5tjmaIT9e0LRFFoISFclhlymehAOJRGLeUKSQpp8gjQZaAIRo0CLGO0oSChFNDPtSGhRIx8miakoAQ4tMELBkml8jTERR1Nsq9yD8kAaNO8dRuheO8K2yRnrHXCqZfICJluzYZohReGKpCvgwi+kNVjMqooSCQMYMtCURpndF0sIDBgcxN0k4trlaKqSo03twhAtYNHkjTUtpFIqGy0m362Y3yexQvS+pyvclCjYJBZL2cAlYvoXc4bTEFNGdBwid2Dzd2DSZyTlHvii9+T2OXHi+iF8fPln8ErtcxZqorlHWgSi3ommnk3o9wDYUvZCmYbpebFIxH1OBpmy+5EBJL84RzlIlGzYiPmh47xBmrtOnqsJV8njYYz0c4lIyumcOdU4az6iT4T0TddPD9wv86hcSECI7pXWHNIvzNRoDNGmho5lLUo4OCugpXWH/iO1yoNMjnH30FzFiWbqGzonJY6jMFMKXQ6Hw0+IFQXht4LvlVI4C7Uv5skMpgDCF52GX9rvLxlAeJoenKqinnEiJzkJZ1pgyM+dJTXiW6pNSOufhPXIIQRHSI8wz0n2NA/4Jf8ORV1ITSakv/l1SF/eiUNDJ3Gl/xzn3v/SNbILYTGyVIV4ufEANtXugkEr1BpYrEaRPLe7ruIXJ/8BI55uiIh0WLzLzesxeGGhOhVJsETzOnHq4IXvgRRAWPg+/ZKc8bkGCEvRxxJIWIH9++v/BAUBDUb/5R/gvXoVYYdDqGmwxDvupXjmRb8GZcGjjIwmM2LL8iF+ZSfGS9NxouMw+idJODVzueZFv7fFvEAMkERkKNBXYGf9q1hduRFpWvOUCogLc3Gil30BL+713cbHF36Jrslmdi0sIhZZmBtPneX57IEUQHg+38tzcFdfeYBApYXJl1lbsA6NhkpIbjQj3yZC6H47RypQhsEY5RFIAYW5h2s89wLpK1RlZdBt3YYhbQhNsX70im1cWGtRdQBz3+HiH8EgQY48XSk2Vu3CqvINyDLmQC5TsHvkizQW84aDsDrHcbf7Bk7c+i0GHJ2IyALPDXPwRZ4v9d1n1AMpgPCMOv75v+xXHiDQK+JUqVIFjEoTKk2V2Fu6H+K7rXB8fgyxsQlE7HaE7bYHpZ4ZMJALghIRkb80EuE0xbyFo1Ku8fwF7Kag3bKYfid6UMKZEiaRKJGLMUmFstfReCVIOs8DQELnJP8qCfDEEq7rwGWkWbBBv4txtTn+HfnmI5Q0CCxonOnapKMgDYVwbSGVL0VC0K2zNiJCoXcx4Xmo8fOI+d+P3BddKV5oiq7PuQi0Ws7eGNYo4CvOgnbvPtx39+B81wmMuUfnjFp4/qdLkncYA8RhGYzyDM6Rv6J0Hcryq2HQpEEqJf+8hJN8JZOJivUW5JuPhOD0OtAz0om7PdfR1HUB1sAIIKPxleR9pQ5L9cB0PZACCKlxMUMPpADClI6hBEoUykUJd3SeMLTDNpTrSiBzeGA9fhhqUxZIZOgbGkDI5YC6oBghpwN+yzBU2flcIMnT381ZCDVFpQhOjsM/PgZVdi6nLfZZhiBRqqHMyILPMoqQwwZd+XI+p7OtBTJ9GlQ5+QiMjyLsdfM5o5EwfCMDUJgyoDBnwDvUx1EI6vwirr7oswxDmZXL33X3tDNo0JVVcQlpup4yIxsSlYbvkcCIKjMbgckJ/miLyxlMuLraIVWpoS4ogn+M7ssBVX4hRwV4BnqE+8rK5WtFfB6+R8oIGbBZocrNhyIjG74JC5CTgYyXXoU16sLFwQtwpmsw7BnBqHNgVkHYl3J2siZBBGlUgRx9IYozl6MoswQFmcVIN2RBo9LGXQ/xPAdT0x3E81aRkNfr92DSOY7BiT70j3Wj23IfI85+eGOULZHKfX8pey/1UEvZAymAsJS9/UJdKwUQHnldQjY9ip1XSZQo0hdxwhJNVIqBU79Dw4pXoFHp0X/tJOxD3Sjb8hpsg50YvHkWhat2QpuZj86zH0OqUKNix9cx3n4TI/euoaBxK+RaPfpvnIHGlIXc2vUYunkO1v421L/+A2YY7nzyUxgLylG4ageGmy/DNT6EotU7EfJ50Xf9BLIqGpFVtQrdlz5D0O1Cyca9cE+MYPDWWeQ3boGpsBKtx37FjEXN/u/D1teO/punkVu7DhpzLgZvnYNcrUFe3SZY2m9grOMOqna/DZlKg3tHfgm1OYfPOXz3Emz9HSje8ApvcDvP/RamwgrkN27l53Rbh1G4ahdCPjcsHbeQv3IrjMXV6Oq8it6wBfl1G9Ez2Y0bvRfgDDg4m2UySvkXatYke7Nk6KOAKCqGJCaDTmFEujaHaz9wNj2mr6i09qNWnlXvcSU6ZXKkfP0TnlE4AzaEYgHEJBHO0pdMKuxkbzV13Fe4B1IA4Sv88md/9BRAmKZ/OGCJ08PquEY7xYYH3XbUl23h2PqBvruw2YZRUbkJtslB9PXdxrLildDrM9B2/zxkMjmqlm+HZbQDw8P3UVTYALlSg77eW9BqjcjLq8ZA/x1MTAygceV+NhI3m34HszkfRUWNGBpqhdM5juLilQiF/OjtuYHM7HLk5lags/0yAkEvysrWwe2eRF//LT6/2VyA5ubjoKQ7DY2vYHJiAH19t5Cbtxw6XTr6++9wCGl+YS1GRzpgsXSiumYH/+zu3c+h1ZlRVrYeQ4Mt/N3S8nXcM+1tF2Ay56OwqAEDfXfgcluxbNkKBIM+DI+0IbegBhq9Gd2jrRi090GlovLJTk6uI6QoTrVEJ8SiIkhiEpDuhdItsysnPtam9hIXWabS2+R74k+MSx7HxFR6OSnPRKrTUz2QfA/EAUJwRAqxxQBxQLFo2dfnCvlM/qYX/8gX6V4XqzemBwgHvhu7aXgF1ow6RCSypK4tQxAFkQsoVX4MQ5oLnM5+7iyxSZ37WR30cPEWQQIRVEodJ3cJBv2cxEml0LJvmJLCKBRqLn8r5JMXc44FzuUe8jMjQbtESupCcdWU7IfyP1D6VEoIRVnvnX4H5GIZFHINVw2k81Jil6goCh+dn2LMZQouHEPGhX5HMf6UBIqy2NGO1EMph0XgolckZqOENJSsRSKW8bVJw0B55inREIkFNQqqhCmCx++AWCKDWq6BP0TPFgClx6UXSGl1KXacMhn6g5SzIszPQxoGuk/Kq08+daqSR6Vr2YKR8UtBg5mH7XxR0ws+j57V/E1dN8kemAIQRCN6iIOLBxAE0uzFGNAEEBKfJHvymR62mP069dyilw78Xuy2Ye9XHiBM/7aFgilCm/r3R/9N4GJmI/noOeIlWGY459S7ePx6M/1utuNmG8PJnv+ZzoPUxVM9kOqBhewBAgjeKIhBEI3qIQrIF41BmG5HupCPspDnInDASbtekAg2sXhpBEkpgLCQoyx1rlQPpHog1QPPcw/EAUJgmFwMKYCQeFUpgDDDFjnFIDzPszl1b6keSPVAqgcWrgdikRiCzihCg0pIJnUQhaUpBoF4YnYxRFnX9bw3Qa70ZWcQSJgtpHafWb8Q/12M+mKpXFlT7yvhSXjeR0zq/lI9kOqBVA/M0QNk+6LBGEIOETCuhtijhii6eAvri+Ji4IoanGcmYZCe96EkCJoX7809fP5n42KIUr4XMUQxKiRDDzsNAIjXQWEFOOu640liFrFXRBGhNjz9xymVUiry532mpO4v1QOpHkimBxLraUgEBCQQk/Yguvg7r8TynswtPqtjBIAg/O/FEFzHbRN32CIaRDr7krsYKPNcVAq1WgmVWgGJTPyEIWbigCscxxAJx+D3huB1eblio0g+tXMWbkiJo2LIRFIoNQooVHJOaMQZ8Ba3/xfuAVJnSvVAqgdSPTBXD7AhpOijuQ5M/T7VA0sNEIi+j4igUqhgzNFBqRZSD09rhOMDmJBd0B+Ba8ILp82NiIRSHS8gcGKXgojD+3QGFTQmFWRySmccHx4pgJCaJ6keSPVAqgdSPfAV7IElZRA4IVxYgjSTDmnZWkikyVnfWDTGIMFp9cLt8Ap5/iULk12OAItMLIPWoIbOpIZMOQUcfAUHROqRUz2Q6oFUD6R6INUD7MBYShcDAQRJWIa0TD0Mmap4EZvkXsSTICEEfEEmgcGBSAadUQOdSQWpIgUOknsbqaNSPZDqgVQPpHrgy94DzwQgmLL10Ker2M8/nzYVJLjsHkRATMLTuRsYHEAGbZoa+gw1uxVSeoP5vI3UsakeSPVAqgdSPfBl7oElBwjiiAxmAgjm+QMEehGCJiEM54QXbrsPERGVKE5OcRPPDAzKk09uBX2aBroM0hwsTUzpkg6kuMiTawElsoPFhIyPCx0gI/Q+1Q4QsjMKuhJBTLqYKUGXtD9TF0v1QKoHUj3wFeuBFw4gJEBCOBiBxxaAzx1ENBxJ+rWRMZNIxNAYlFCblJAmqYNI+gLP8EChMKCQ7IOiPyLBCMLBKCL0iUQRpU+UCgMtLFlC8dWxmAhiCUV+ABKpGBK5BFKZmN02Yin9XMyM0QuSmv0ZvsXUpVM9kOqBVA88Hz3wQgKE+IaVjR1/IlEutTtXo90z5zkggyURzdvFMdf5n9XvCRhEw1GEghGEfBEEvWFEQlR7+OGunlI7JHgW4hAWqglnEjJaPfh7HDAkip9IpWIo1FLIVDJI5WIGEPN1Ly3U/b5Q5+F+JNAXH+fxPC4CITS1RsgL9VSpm031wFe6B3idFMdYg8ebJgqpf05z7ry4AGHqEEvOw/AwaePC2cdnOtA5T0QoipA/goAnzK6XBNVPg47CnRPOE/r7UjXOYcF3Enc+RClLmcBayBUSyDVyjhYhhiEFFB57K3GXUDQSQzgEhEMxhINAKChGJChCJCLivnyQ0iVFySzVsE5dJ9UDX6gHEkswVdUVS2KQyqKQyukDSGUiSGUQNq/PUXapLwdA+EKv7QX8cgzsMgj6wgh4Qwh5CRgQKo2zIksIBpLtPdr1iihTWYT+IoJMIYVCK4VcJWWXzwKSGsne0nN3HLuGKBWuP4qgXwS/X4pQSAbEFIiCPlSOnWqrU9FwagvsK3rueiR1Q6ke+JL1QIz4W6ICIxAhCDECEIsCkErDkCvDUKiikCkJLIifi0R9KYDwgo0/Yg3CgQh87hCDA6KfOef5QgsLFqtfEuLJCGlBRFCoZZDrZCwU/aoKGhMuIr8nAr9XgoBPgXBEhSjUiIqUEEHyEBAsJJKKp9+N0z3CG5+ajv45BJqLNSyfy/NO9SIlqMAEFf2cUtLPZT8+lzeVmHx0cxGIY0GI4IVU4oNC4YdSE4FCLWZm4VmyrCmA8FwOnulvKhHm6XMFWGdA/gOuC/4iLuRx3zo52aVyKVQGORQq6TOdDM9iKBBrEPJF4XNRSnEFgmE9IiINYpAzU7AoL5f6PiICRQnDD8AnAoKih+CANL80pr6EwT3P4h0/9TUTNiQxDOhPeQxQCh+RLO5DFCfpY33qG0l9cfF7QHjZxCqIYl7IJS4olD6o9TEo1BLWzD2LlgIIz6LXn+KaxBwQKPA6AxyZIAhdXnyKmUBPLByDWCaG1qhgRuFZIuaneDVP/RXSGfjdYbgdYgQCBkSgRxRKirN56nPO+kVag0jD4ANiTjFEHkASkUMaUUAclT0oUsYiyNQOdXHewXzOGgcIgsyEStZFERWHEZEEEJYEAXUM0EUhUtOQoSI38zl56tjnswfiQCEWgCRGIMEOjT4ClU6SdObhhXyuFEBYyN5cpHM9AAeOAEKhSDxc8OkRJderFItZIR+NRXnpeZaNVfrhKMQSCXTmrwZIIHDgcUbgtUvgD6UjItICrDF4+vc66zuMADFiCmxiiNwSyEIayERKSEUyiMUSju55wsIs0q1Me58sbH2+d8Icp7PEffJoX8UQjUWETzSMIPwISryIaUIQGaMCYCCJSqp9CXqAaT5I4IVcOg61LgitcelBQgogPOdDiYx4yB+G1x5EMBDmQlVP66sXQwSZRAGdIg0GVToikTBsvnF4Qi5EoqFnukCTMp/yWYilYhgosyXXxFjK1XjpBgKBA689ApdDjmAoExGxZnH5/DAQs4uACSnkAQ2UEi0kYjkDAyE4NR5t8kj45Ez9kchlsVDvJoZYjPJ0hBGmsA2+l+dtKywAaIlExh926y0YUqDnFxiC2dvjJX4p9DWKcDSAQNSDoMyDmDksAAUCCQv1ehZrWjx45llu9Hl/hmT6ZtbXGqfqZn3OGEQxHxQSAgke6EzSJWUSUgAhmZf8DI+hMEZKCBXwBIEvkLtBKpZAIzcgz1iK8swaZKjzEAgF0D/Zgd7J+5jwDsMf8iISSz7p1EJ3C+dNCMYgU0k4w6VUtkhU+0Lf+DzOR5oDrzMM96QMgVBuHBzM4wTzOZQ2IUFAZBVDMqmAImqAXKqGRCzkJyfDzNR1lP4UlNXRSISBmWAEHzba3VO+EQIVEJGglACcwDo8PZCLMSjw+1wIRwRw8PC883nQxT2W+ikWnxcEEFQqHaQUm/aUVljIbErnTJxXAElCdNuj1oIZPvIexN8ZuZ+Y7eFMpcI7ikYjCEa88MeciBj9QHpU0Ck8bwaW2fMYJDHhKaMxygVAfObDG+WeiRKrGWOmlPOA0H8vijs1DghEJB6H6AHUZSH5I88pzDt6flpxeS5SFe4ZQhxJl6CQWKAz+KAxSpdMkyDa/cbvxW6l7YUtow4RCVGcczcZgiiIXECp8mMY0lwQJ4lYKT7+i6ZanvvuvjxHUEig1xWEezIAXpefQqgiEUmgkKmQrs5BSUYNyjJrkK0vgEahRTgahdNrw4i9F93We+ibbMOk14Jg2I8IG49n0OJJgVRaOTRGBcQUAvklaeRKoUgFp1UMfyAHETG5FRbp+eLgAOMSSK0qqMQEDlRsVATDRAYpBJVSDJlMBAOlHdeqOROnVCaFUvmoAQyHw/B5/ZBIJHC6vPwJBCIIBmOIRKRPZdgj0TB8PhdlgoJCoYFYIl3wNOALN3ToOel5vZy6nEACgYX5tES/i8VhyOUiKBRi6HQq6PUalhMpFHLu36mwLBAIIUzMmlgMl8sLm92FUCiKgD+GcEQqsED8TmM8b31hO8JpHiAzBhG5HJ4DkEDrvlwkgVamgkamgF6lgUGjFfpRroBEMtUvEoM/FEIoHIZELILT54HN7YI/FIQr5EMgFhaYzueMXWTbFgPUMiU0MiXUcgWMWj00CiVocybl9zoFCEVjcAe8UMrl8AQCmHQ54PZ74QsH4Kb194lnjEESdUMht0BnDEKlp3e/+C83BRDmM8OX+FjKc+Ca8HHOAzaUSY4HFqCLJGwQjOp0FJnKUZBWwayBXmWERqmBXK4Qdn4kYA/7MekeQ894OzrH7mLU2QtnwIZQJPhsgEKEdpJiaEwKKDRkfJJ88CV+P/O5HO2EKDzVMRGDx2NGRGyK5zSYz1nmcSxtyMckkIyroZYYIJMqeU0lIyWRhJFmUKCkJBu1tcXIz8uEUikTxlic9eRkLY8xCAnMSDsfny+AoeEJtLT2orfHAqvVh0hUAArJDtRQKAC/zwmlSgeZTJH09+bRCwt+aDgchNfrgFKphVyuSvL8tFskIx+GyahEYWE6amuKUVCQAbVGGWd0mJiZhkEQso7R6yD2KRgMYXhkAs3NvWhvH4LdEUA4TH0uuD1C4QCDhJDRA1HWs2USyGAqxFJk6cwozcxDXVE5CtJzoFLQMwvAmPfVj401YhaYOqBnjkURCIUwYh3D7b52tA33Ycxtgy8aJA4myf5fxMOoQnFMBKNSizxjOmqLylGVWwyTzsDvldYx1vs+MZ+EuUjPz6Hr0QgcHifah/twt68D/ZOjsAe8CEUjU/YQUUiiDqhVY9CbY5CrF7/6cAogLOLY+SKnJjqXmAO/O8h++WTBAdGPcgmhdBNyDcUoNlciL60UJk0mZGI5LzZM68UnKNdIEIkQCgXh8Ngx7h7BiLMbffZ2jDoG4A46EY4GHxZ8+iIPlex3SY8QiUKulkFL9TJki7TLTvZ+FuA4qo3hsUfgtGsRimYgJlpEg0iCxEkxpBYVVDEjA0WB0g7BZFSgoiIXq1dXIj8vg5kCqXT+eg9e1CIRASgMjuPa9Ta0d4zC4QggFpM9oL9n7joydj74fW5odeY4hb4AHb3IpyBw5HZPMsAmkDDXxBSMQARarRilZVlYs7oSy4qyoVIpIZM9Tb9TkrQI/P4gLBYbmpra0NLajwmrj2IghbkcCcAXsSGc6QUy4pqERe6Xx9AkKCYmQ61HVV4J1lXUoSgjl4EB7abnC/g5Y2w0An8wiGHbBK513MHdgQ4MO6wIiYgJezYbCDL9GokChcYsrCmrQf2yShg0Oihksrjod36dTmAoGArB4XWjdaALTV0taBsdgCfiFyLWaLTFgpBiAro0J3QmSlu/uM+eAgjze4dLdnTAF4LL4kOM6ikkQbPTJJGK5dDK9cjU5mFZehWWmSthUmdCLlFBIVNAoVAIVGQwiFAoxAsN/ZtoTfrQACWfsCfohMU1gO7xNgw7u2HzjcEXciMcjdN7S9AL5F6hZ9KkKaHUkcFZgosu0iVoMxTwkmtBAp8/ExGRbnFdC04RxMNyqMMmyKUaYTeGILKztdi4YTkaG8pgMGgZGHzRRqemceR2e3HrVicuXb6HoWEXR2QIbMJMLYZAwIeA/0UECFbIZEoolZpZgVDCjZOZocbaNRVYs6aK3QkL0e/Uq8QsOp1utLT04sLFexgcsiPKLI4YwbAPXrEN0RwfYFxCV0PcnVBkzMKmykasLq9jlwJlS12IKrKRaBQOjwt3+tpwprUJPRPDCJIXf4kXCJL3EmtQn1+OTVUrUJSZA5WcWLovvlDRmkwulSHrKM613MD1nlbYgx5Bh0H1hGIeKGVjMJgDUGopd8wXncUzfz8FEBavb5/6zEQluqw+BNyhpNgD0hmoFTpk6vKQpy9Grq4Y2YZCmHTpHLVACzh9CCBIpVKQPzkBEggoUKOfy+Vy/oQjYXh8Lkw4LLC4BzDi6sWwsxc2rwX+sI/jsRe9EcsYjkGhkbEWQfICswjMHtiicNr1CCE9ngRpkXowKEJsUAylywC1zMgLViwWQF6uHtu31aGmtoS1Bgvtv6RFzev1o6WlB6fO3MHgoAOxGO1oZ1q94gAh4IFWSwzCIq5yC9jVxCB4vXYWKRJAmJlBIFAWYlC2dUs1GhvKodWSBuSLG5Cpj5Po97a2AZw+cwc9PVZEY4I2whdywqeyQVQUARSLT8eTH14GCUrSc7Crdh0aiqugUS7OM5O//t5gN47fuYw2Sz9CSwgSxDERTEotVhdXY0v1SuSbsyCjQgoL3Iihm3DacLblOk7fuw570BtnEsKQxiag09uhM4m4AN5itRRAWKyefdrzUlhjKIrJYReD4rlEeqQ1MChMWGauQlVOA3LTlkEp1kIUFUMml0MR1xoQIEiwBYLREERXtOAl/iQWIQES6Gc+vxcevwt27wQGJrvQOdHCYCEQdS++/y+eaZGEShqTkt0NC7y2Pu0bmt/3iD3wkfZACq8/A9HFZA+iIsTsgHhABa0kAzIJCQ3DyMxQYtvWWqxYUQ6dTr3gRirRITSmPF4/7tzuwslTd2CxeITcDtO+uBcTIBAr4PHYIZPJWVg5HUAQqpiGYTbLsWN7HVatqmBQttDgYGq/e30BtDR348TJ2w8YHBKBuoMTCOd5IEoXKgguZiNffGFaJl6q34BVJdXQqhb3mT0BH273tOHYnYvomRxFeIk2LuRWWL2sCi81bEBBRg5kj4gsF7aHaX22Ou04fOMczrTdgC8W4iGXYBHSMoJQaBZPi/ACAgSqdiUG7ZrFYilXvgpEApw45HlpggGmu5n/hKTFxecKwjnhg4R9lLM/FekKivRVqM/egNKcahj1Zu4fFjaKxYLrgMKGeNES7of+nfhZQo+QYBnomATAcug7AAAgAElEQVTTILgcwnC5HOgb7kHr0E30eVrgEVkR4eCcxW2cZTEag9qggMagmFeGxcRinHjmxb3Tmc9O9+9xRGCf0CAUy0ZMREZ7kRqlS+6TQOk1QiU3kPwJajWwaUMFNm+ug9GoX3Dm4PEnof52ODy4eLEFp07fhddHIZPTZe/58gIEWotk0gg2b67C9m0NMJv1iwYOpoIEp9ODy5dbcfZcKxxOmp9i+ENuuKUTEJVGIFpMFiEGGGQqvFy3Httq1rCCf7EA0dRntntduHDvJo43X8G418EVbBezSaJAiTkXb63bjaqCEsgXgTl4/P5pre6xDOKTqydxd6gLQdJdIAwpLEgzOaFJW7xUzC8cQJCIpUhTZiJdnYsMTS4UEiVax67B4unnDGPPslHUq0KqhlqqQyBCISsu9uvPp1ESHceYl5MjJSNOlEuUqDKvRn3mRmQacqFWUYSCHDKZjD/UfD4faw7o34kwqgRgoD8TQIKOJUCQYBeIdaDvjo+Po2+gF4O2LoxLeuCTTyAiWvy+ZjFzJMrpl7VGZdJuBqK1VTIdpGIp/CEPQlESzs0frM3nvc10bDgUhWsScDmNCIO3cQtx2ifPQX3lEkHULYdBmg0JsQexIMrKzHj99Q0oLMhK2vdNCxKp5Sm8jhZ5mUzKn2QXfAKnAwNjOHz4KlrvW+KixcdX7i8nQBDGWRDFy0zYv28tysry5tHvMQRDQYQpW+pT9Du9NxIuHvzdJdxtHuZ+J3GfMzSKSKEf4rTFYxFIlFifW4bX12xHSXb+g8iMuQY7R2aEQgiHwvFnlkAqpWRUyVl60iQMW8fw8ZUTaBpoE1wNi9ViMaTJ1Hi5bgN21a+HTk0M0tyNxkQoHOE1mDYMpEER1uLk1wJ/MICmrla8f+koxik0WByFBHZoVePQZ8QgU3xxPdHjT8IRJs9jHgQhqQQlBHlykEjFMixLq0ZVxmoopCoO5xt0dOL6yElGywqJmpWys6mLSWwXjPjjgGKhDIcISqkGyzNWozJjJTqtd9A8dpnFQtQ42UcSYIESI1kH3RCJkxMnUh/UZW1AQ/YWDmlkdkUigVJJIiol/52MvMfjeeA+4P6NJ8NJMAl03MOIhhAmJycxODiI0dFR/rvH64ZP7IBTPQSfwoqIaIkYm3AUEqkEGrMScqV0xtdK4IyenZ6LxsDK3B0wq7PRab2NHvs9ZphoOAWjQYQjwbln9UIcEQOC/gjsY1L4AlnxdMrJLXzzvnxEhKhFBMWYDhpFBheE1qhj2LatBtu3NUKtphoPczcCBkMjY2hp7cLI6DjHb1dVFKN6eQn0em3SIMHrDeDixWYc+/wWPOQ6fYJFeDqAQO9XLidRrRjBYIRBzFK2uVwMlFBJJg1j1656Zg80GvLBz32H9ByWMSvutHZgoH+EAVlZcQGqKothMqUlbUwob8LVq604euwW7A6h6pYnaIcvzQZRXhQi6UKtd1OeKc4e7F+xBdtr10CjVCcVdEXPPEbPfK8T/X3DrIMqK85HVVUJzPN4Zl8wgIv3buDQzfOweO2LxiJQufoyYy5+sOtNFGRkJxWpQACIhKTtXX1o7+iD1+tDThaFuZYjPy+L33MyjUDGqG2CWYQrPa0IIgRRzA+FZAim7DCUakqUM/uZyKrSpkkqoWgSyjlCqwRFiIQRivo5WdnUdOdsJ543gECLvE5ugkmZBYVM+QRJTw+pUxhRZm6AXmHEgKOdhXSt41chFkmxIX8vMrR5cYP8aIdx3jcRMO4dxZ2R8xjzDsx7hz/TKyCgkq1bhi2Fr0OrSMP98evotd8XwgpJVRzxYcI3ikh0ZuNEmw82KMMecA6WJFA0A4TM9WjI2QKjKoMnWaIRk0AggQw/sQHCrkRgFThMLc4WJBiEhHjR6XSir68Pvb29cDgc7I7gBVnugVM1AA8zCHMDBBItzdSSpQITbga9WQ2FdnodAjEGWnka0lU5DBrVUi3WFb4CjUyLW6MXEQx7oZbreSJ0WG9hwNnOf1/sRu+TEiNNjsgRjOXFQxsX56qxkAixbgl0gQwoZFoOrcsv0OCtA1tQXJyTlIGhBbuzqx9HT1xEX/8IGzcSHtK4Wbe6Fi/v3gC9LjmQQCxCV9cQDn12Fd09tnjOh6kr2NMBBIVChvq6AhQUmHG9qRtDQzZ2pz1dm2mAzrzSzg4QBO1BTrYGr+5fg5qa4qTYA7r/oaFRfPLZafT0DEGtVnFGS3ofDfWVeGnnemSkm5LaVZNBGh214t1fn0JPrwMikQyBsA8ujEBUvjhiRUlMjIrMAhxYswNV+SXxpECzvxF+5mELfvvZaXR10zMr+Zlpp91QV4GX6ZkzSLw6N7qi9WlwwoJ3zx9Gs6WH8oE+3XCY7VtUQFMkxY6qVTiw/iVoVXPnwGB3m9ONC5du4uKV2/w+CXB7vD5kZJjw9oHdKCkueCw51sw3EQgGcP7eTfz60lF42I6EIcMAzNl+qHTE8M38XYooUst0KDJUojS9nhPnKcRKBCMBTPot6LbeRZ/9PtxB+4Nsus8lQKBQvQrzClRnrYNOnjZNwVsRx3Vr5QZO5nOq5wP0O9rhD3thVuXi23V/xvTqiLOHfzaVWpZJZMg3VLCxPt71PrptzVyDINHI0FAwjkQk5WuwQjhMIVsxSMUKSEVSzn0+XbgfGahVubuwOncHwrEwPEGhvgG5AFRyDXf8p60/xYSPqL/pFyYh014IrgkvRBybPvc4J4NYnb4WtRkbYNJkQCEXWAMCBKQrIJCQ0BQQECAAkXAz0DGBQODBRYhlGBgYwNDQELMGfj/VAk4k+YjCJ3Eyg+BXTiIqnnnnRsBAKlHwACSXkCgmpIYlYUZMRPqHCAIRH0Kx4Jz1HziMLhSF3qyCSk+q+Cf7hK6RqytBbeY6ZGoLYVZlQS0zwOGfgD0wjkDYz9ejLJEdk7cx5l4adxTdu88VgXVUhRDyKRXm3C/0KY+IBUSI3ZPAJMuPZ6YLobo6G9/59i4OrZur0b06nC58dvQ8Ll25heWVJdi+ZTXau/px6PAZGNMM+MaBl9DYUJXUrofGuN3uxmeHr+DKlW5EOaLhiwMEjUaBl1+qQ21NAT492ITW1qF5swhiMelshNDeqfaHMwFT+e1wBIEAGZknB9tcAIGyUzY05GP/3rXIzEzOqHs8Pnx27BwuXLqFdFMavvHWHgyPjOHDT45DrVJg754t2LiugTMtJtPcbh8+/OgMbtwY4ORVNN9s4SGgLChUfkxiXUnmOoljFCIpNpc14PU1O5CuT0uKZaKd9OFjF3D+4g2YjAa8/fVXMDo6gQ8+PgaVUoG9L2/Gpg2NST+zy+fBr88fxsXOOwgshpshBmQq9Pi9rfvQWLz8kY3YTH1FgKD1Xic+PXQaHo8fu3asQ1ammd8rgaM1q2rw7W/sS2p+0jXIXdTc14FfXziCAec4YqIIpBhBmtkl6BBmAFO0eTWrc7AiZxsKDOW8OVJKVBCJJbD6RiGBhDfb/fZ2NI2c5LT7xCSQbXnuGARiCGQSJRvW6YqiyERSlBhrUZ+zBZ6gA2f7PsGoq5eZgAx1Pt6p/8+wByZwqusDWP2jnO870TQyHfZW/D7vLE/2fIiuybtsxOmacqkSJlUW09P0neWZaxCLhnFp8AjC0RDydaVIU2Zg2NWFUXc/IjFhB8r3K1Wh0rQCG4r2weWfRNPwSYx7hpjRqMpYhZrM9XAEJnCk/ef850yNBW3OALz2AO/4ktllU46DKtMqLDethVGdAZVSxQsfgQP2ecWfn4CCSqViBoH+TkBByIjnY5bAZrPBYrFgeHgYLpeLv5dwOXBRmEgIfokLHt0IAirbjACBwQEUqMlbg6rcBujVaZBK5MyikEYkFA7B5bOjdfAmOsbvwB/xzA4S4gCBEiapCSDMMAnoGqT9KDRUYF3BHsjFclwaOIpJ3ygneyIdAl1foNMCPNmeRkQ6n4WT6y7YSaCoQ0iUg9hilnF2AyD9gSyPBbwyWRgbN5Rj//4NbGTmajReOrsH8MnBk+jtG8Ybr+1EZXkRDh4+i+s3WhgUbNu8Gm9+bRc06rl3T3Q9vz+AY8eu4+TpVoTDQnz+w5Y8gyDgCqFYkVqtwCt76plF+PiT62hueQgQktGZ0DkyzCqsWVMGc7oecpkAFJhRixAwCGF42IaLl+5DwM6PZZScJYqBziESBbB1SxX27V0HjWZutw6NEYtlAv/+q4Po6R3E7u3rsWF9A06fvY6TZ68yqKZ+f23/NhjTkhP+BQJBnDl7G58fvwOfT4hYsodHEc33AWlU42Cu0TCP38cAlUiGPXXr8eqa7VAr5n5mpsstE/jFu4fQ2d2PndvWYvPGFTh9tgknz1zhdWnr5tX42v7tLKxNRvtCPvpjty7iyJ2LcFA67AUGQfQe8lQm/Nnr30WuKTOpeyLgd/Z8E3535CyKi3Lx8u6NsFodOHj4DL/z7Ox0/PiP30FhQXZSYb7UL/3jI/jk2kncHGhHmIWK49AbbJw0STxN0iTqO73CjLV5L6HYWIMBezvuTVzHxsL9rBO5MXwa7oAD9dmbkKsvxu2Rc7hjucjJ8UqNdc8fQJhtaJIxJvHZqrwdqMvcgJaxq7gxcgrugJ2NDAGEb9f/BWw+C450/kJAQlP8/rTL/9ryH0EjT8PpKQCBjBcJH8lvnanJx/3xJlRlroZebsDpnk9h81sYfallWty1XESPrYVBAy0eKpkGxcY6Zg4IpNwePYt2603OZkaukM1Fr6NQX4lrwydwd/QcApQVa4ZGAMFtC8DnDEAiTQ4gEMqryViPGvNa6BUmDr9itBkPYUz8nSYlgQJiExJAgdiDiYkJ1hoQY0DAwOv18ncfjwKghE0hmRtu3Qj8rEGYnkEggEBhlvsbv4M1ZVuhVsQpaSHHBy9WnoALl9pP4Fz7Z7D5x2fXZhBACEc5YRIBBPEM9SgIJRtVmVibvwclxhpmD5yBSQY2A85O2HyjUMv0nE2SULPVO4zQLO6eeSyRMx5KglO3LQqHjfIfZFE9wDlPK+hvhNVN0K0IAHfWqAza7FJypH4lDNIcPpaiF/a81MDRC8nsPCn3/a3b9/HpoTNwuz048NpOuD1enDxzjbMlen0+pn5/8N0DnGQpmUbG9uw5wVB5PImCQ4lvJgcQhGchV5kg6iKws2VLJSorcnDs+F10dFi4EiSFBvt8xIgRKJ757qRSMSrKM/DG19bCZNJDMmU8cTrsSASDg1b87Gen4XBSaPCj55qNQaDfSaUh7NxRg5dfWhOvZzF7T9Eus72jF7/64DDGJ2z41lt7WHPz2ZFzsE46WbS4qrGaARulxE4mX0QoFMbt25349LdXYLMLhLsrPIZwlhsiMw3D6TsooU2aGvH0oMQ1sX/TPUoM0MtU2N+4GS81boQyvv7M9tT0zB2dfXj3N0dYd/H2gZchV8hw6Mg5TE46QABnRWMVDry2CwX5WUk9czAcwrWOu/jw6glYPLPrEARtG8X4JDm/eDLGUKTNwE8O/IDTKM/VqA/pWY58fgFnL97Aivoq1NWU4er1ZnT1DMJmd8Kg1+IHv3+A51UyWgQ655hjEodvnsO5tlvwxQKQwAaddgKGdBEksidREa13Fekr2X55Q25cGjjMtunNmj/l5HfHO9+FzT/GLns6hmzppYEjsPpG2G49dwzCbB3PVLK2BGvzX2Y//6WBz9A9eTdurPHUAIGuqZSqUZ+9BZXpKznVMInZsrVF8UyC41hX+DImPMO4PHAEE94hBgNklDI1BdhYtB8KsQr3xq+i3XoDvrAHMrECpaY6vlei+E50vY8RT8+sanoCCFR7wecOciXDZFAwAYTazPVoJJGiJoONMLkGEu4BAgXEGtDkn5oUiUAAMQYkQiTNAf2ONAiJPxOGKeGWIMMckLrgUJFIcXYNghQy1OSswY7a11GSVcnsjNBiXEGyd7wdp5sPonW0CYGoIOKcscWoDHQUar0C6jQq3vTkJKCdKYEjYmrqsjYy4Bh29SAaC6PUWM/jY9w7xMIcQsudk3fQa29l3+wMy95c8z+p39N9uyajcDrS4gBh9q0b5afXKFQwqElDIOKUq96gn9+pVqlEJBaD2+97UjcTBWI2ESRDqjhAAHRaYP++NVi7tgpy+dxJXOi90+J16Oh5hieNDZVoa+/lAkFZWWa0tHaivKwQ/+F7b7KALJldHQkeL5BQ8dgtOF0UdvtoUR7OpDhHoiSFQory8mwUFKRDpaTIHAmWFWUgPV2Hzi4LrBMu3nE6XQF0dY1iYNCKcHhmHzTZBrNZhd0761BXV8TFkhLPQn7xCasTl6+04+zZe1yIan4MArn0wti1sw67dq2CMgmXABnzO83tTK3b7S689cZu3LrTBuukAwadhlmdyspiBmwly8h9NPf2n6nt1l58+NF5WCep7I8I7tAYghluiDK5eMAj41dgUGVI05DAVQlPwA+HlypsRqCQyiCTSkFCQDLCT4CEGGCUa/Dqii3YWb8OiiQAAj3z3ZYO/Objz2G1OfDW67twu7kdVqsdBgO9135UVCzjZy4tpmeeG1gTwL3dcx8fXD6GQdckZ6B9vNFGkIoopal1rAWg+eUO0PoTg1qu4nnlDSbYxce+HYmh2JCFnxz4PtK0+jnnP62fBH5+d/gsrjY1Y0V9JRRKBTo7+5FuNuJeezcDn2+/vQ8b1tZDkcQcZdDhduDozQs40XqNAYI4ZoNWM460TNG0KelJOL+xYB+WZ65F0/AptIxd5kR6u0rexphnAEc7fwlv0IU8fRnW5O1inQKx8oOODqEQ2PMmUpyp5xNGoD5rM9P2JKhoGjrJAosES/C0DAJdk3QHWdpCdl+Q26Hf2cHCN4lIjCxtEcrNDbg3cQ3Xh04w8qJGAEEvNyPXUMLGZsjZiUDYyx1L97I6bxeDDGId7louwBsiPcMstjAOEPyeIO8ikgUIxCA0ZG+CWZvFVD65DRJMQCKiIZFmOeF6sFqtLEQk90JCrEhGIpFQiRZNAhcJzQL1sV8qaBCSiWIgFqE6ZxW21exDcWYlJ+0hQUzfWAfOtx1Fy9A11nfMaaDjAEGlV0AzA0CgyBaiz1bm7mR6nbQlvpAHOboiLE9fxaGFfY777FKiRE/ELtC9xBZDzDTl9c4HINCuJkNnRENBOQpMRDmKMO6ycSpZXyCA4oxcUMz3rf52BMIPdTN8uWkAglYD7Nu3GuvXLU8SIIR5ITt89DxX0iPj5vX5UV9Tye6YC5duoLRkKkCYc41EgADC+bscyeByk8vq6QBCSUkWsrMN7A4gsEOAITvLwPoDy5ggovX5Qujrn8DQ0OSsAIHnugTIzTFg48ZK1NUKIIEW34kJJ65e68CVq51cU2K+GgSOYJARQKjF7l2rk2IQEsby/Y+OYmxsEvU1FRgYGkVZSQHT66fOXkdZaQEOvL4LxUV5SQOE5pYefPTReUzahLynntD4jACBQEBNXimqc4qhU6vh9nnRP2mBxWmFXqlh0HB/pA8W5+QjLts45ufQP4pg2N2wPmmA0NzayaCIXA11y8sxMGzhZzabDMxalZbk8zMnC4pozN7svoffXP4cQ+4nAQKtiyaNHtV5xSjNyINcKmdj2zMxBLvXg7KsfNg8LjQPdcIboLXhUYBBm7diXQZ+8uYPOcfDXI13+2OTOHjkDC5duY3szHSe0+Seq6+twJHjF3h+vBMHCMmAeDqn1WVngHDy3vUHAEGnGYdhBoCgkemxddkBVKSvwPGu91jUv6FwL/L15WgZu4Ibw6fY3hWlVWFN3m7WHZzp/ZiP45LbLwJAIGOlkRlQYW5EXfYm+ENeXB8+gX5HG9MliSZoEP6CKZNjne8yTZKo407H0DlerfohNOw6eKhBoN8J2gc5H0NDwxNyIBFSuSp3B7MCBA4GnR2PKOBp4JHWQAgXCbEoj6juusyNKDPV80722tDxB6zDXADBMxmA1zVfF8M6vp5BaYJMKufFLsEE0OJJLcEk0J8EEog56OjogN1O+duFxEkEDggsEKig4xIaBD6BCAjJ3XCqhuCdg0EQnlEEpViDyuxGbK/ejzxTEUbtAzh3/yhah5vgDTmnRflP9E+CQZjFxUCgIFNbwGwOvScSsBJgIK2JRCznMdJsuYw2axMDuPnmpphrMZjp91xwyx6FY9KAMLJm1SDIJTJU5RZha8UKBgDBcBjZaekIhYNc/larVOFqVzMudTUjEH4sEoYAgksEcZ8CadJc3hGrlDHs3l3HIY7JuBjovd++247fHT6DkdEJfve0YL+0awPOXWjiXW1NdRm+/3tf43DHZBpRxafP3MLxE3fZF/5obYbkXQzkFhDGIqBRK7B7dy1qa/Lx29/dxD0SKcZrihBzkFxEA7nbRAwS1q+vwPKqfHZNNN3oQlNTD2x2/4xuirlcDBJJCDu3V+Pll9dAlaT2o6OzH796/zN09w5Cq1Fz+Nvu7evQ0z+M0+euo7a6jF0MeTkZydHtwRBu3OjAwUNX4XAQQIjBHR5HKNsNERURncIg0LpnVOuwv3ETcgwZ6J0YQYbeCL1aA7fPw35qAgpEaQ/bJ56cOzFAJ1ViX8Mm7FmxCUp5knqXrgG8+8Fn6OymZ1YhLzcTL+1Yj76BEZw8ew3VVaU48PpO5Ocm51ahXAqX227h42unMOZ7MmEShb7XUOGosloh70IkgjxzJotSqaS0UaPDzb52nGu7AQ+xdo81WlML1en4v976Acw6Sigxe6PjbTYnjh6/gM9PXWYWMCPdiG2bV3GUyoefngDlcPjhHxxAfU150i4Gi92KQ01ncaHzNvxcuGkSWl3cxUBF/R5rSqmWAUGleQWuDB5jsfzWZW+who6E+iOubsjFCtRmbkBjzlZYPIO4PHCYGVe66ecaINDgpV26RmFEVfpKVGesZaHZzeEz6LTd4bwHU5EeA4SG/4wAA4iTcAasj1D65EagziKjcaL7vQcixal9mijPSdEUxCisz38FGrkeN0fOon1CcB9ML26jGFMZTOos1GSsY/cCFTm6MXIag87OR4DMTEOLBqvXGYTHHhCo9P+/vS/tkqM603wiIiP3rZaUVFVoQwihhR0JsxhjYwwyGPCc6eluu6fn23yZM1/n78yHHp85456xu23jbhsMwoAQyEggCWSEJLTWvuWeGeuc943MUqlUS2RWRlaWeOPYRliRN24898a9z32X5/URaBPRYjiQI4LwFDLRgTsEShZLKXs55F40ObkXvvrqK5AlgSYzByJanlhJkxg0fZLUX8LZipRRjBNB8KuDoCCiRHHvwH4M9+/CRP4mvpk5z5aU5UyAy+LiM0iRSAKNayY6iO/ueBVbUzvwl5vv8L/TuFN64+U5zx3lJ5htrQXAz983VRTnppMwMbxqDAItYIOpLLalBzFfLcKwDGzNDCKXzLKJt1Apsub8TCnPC8ttF8V2VBQoF3VkQyNswQqFLBw5shuvv/YsEj40EGhjvXLtJv71d+/i3BcXkc2keFPatXMI//Of/pX94889+zhePfo9xGNrB6JR/0j+99//8DHee++vsO2lFR79EYSlOFPg39GXvSDFX1GQ4rkbLWcxeG16JGFLLoWdOwdRr1v45sokWw6Wwru4D6sTBBeqYuCZp+/D0aNPIpWiYk5rbyR00vxf/+dNfH72K0SjEbzxyvNsYn/rTydAJ+2nv/MIXnnpuxz74ce1Q5Ue3/7Tpzh27AvU6hQc7CJvjcHZUYOSprzrW33iuK5IlE/VdNi5MTfBJ20iC0RKya1wfXYc12cnUCW59qVOBgpSVHW8ePBJvHr4e0hGKU1i7XeemprFL375e5z+/Cu2VlFA4gMP7OZ3JvfDd448hFePPsfz0M87V+s1/Nunf8Yfz32MglW7Y+2kNW1begBb0v2YKc0zCR/KDiCX7GM3Ssmo4vLEDYzmp+/8vrzpgqFYH/77j/8eO7YML6vRs/StKUWYUhx/9ds/cfXNI48f5IDMr76+ij+8dRypdAL/7b/+LZMjP7ElTUXFX338J5wdvcyp5qSmmM7OI9WnLRukSLV4Dm55kl2vVEeH96hoDl9O/QUnb77FhO+e9H14bPh5dtOSG+LLqY/5IEXuiR4lCJRqqHEHaZPev+UJDCV3c9rimfEPcGnuLPtNlpqIc/ER/Pzh/8HljkkbgcSQFl+UprgtvZPT3v794i9wafbMbWmOdC8TkjDli+7Hwa1PIRVO44uJEzg39TH7r5czS7NyXyiFkfS92J87zIGOlMVAfR0tXuZ+rGlKb2gT1Msm8pM1qCxhvzZDoCyG/f1PeGmOyS1MEGijp8nUnHRLg4/IukAE4eJFMqVSrnQjKI6jsBX+bdPFQJhwe5SBECmjnBznNEc/OghN7HXoCOsxmFYNpnu7GMdaiwkd5WzTRWowhhhXdVwZExq7oeQuvLDnbznj5A8X/4lTUsl9VCSxGCImJGVtlWH6HJM1+7fKDbfSHKMwlXsaWgAr/4BiEOgd6KOljYjGMkyWHEXjhdq0zTtNvM3magrcCyFklG1caZBKO+/bN4if/f0L6OdI8LUWbaBQLOHtd07gvQ/+wifZn7zyPPL5Amcy9GfT+I8/fREH9+/xleLlmezzePP3J/DpqeteTYbbGG+7BCGCH77QtCCcwvnzo20SBA8PqhEVDlNGD1ndqLrpWjitVovBK9B08OA2TnMcGfF34qeN5J1jH/NJk1QU/+5vXubAy3976zj7pl/+4TN4/PGDvvzU1HuSXP7lPx/DmTM34UJni+GcdQPKXguI3VnZkb/1hrgcfS/k7tJJUKeR6WTYJm+aKxHrMDR8Z/dBvH7k+9ja54m1rXVVqzW8894neOudEzANi9+Z1p3fv/UBz3l65yfonX3EcfA7V0r4xbHf4cTVL2Cu4Dqk74lcxpbbqGKrqFxHgeIRLMdmy4K9kpidC/SHk/hPT72I7+x72JfEsheAehW/efNdXL0+zqmq++7fiXffP4lr1xIRz1wAACAASURBVMfx1BMP4fXXfsB1OvxcZPWgOIv//eG/Yaw8x2mOujuKvsES4iukOdJY9MW24qGtT2Nndj9buL+Z+xLnJ0/yurKjbx/29B1CVE/g0swZfD7xAeark5xJ+MTID3qTINCGm43kOFthV3Y/m/6v579mM/F46WojuOzOQCQC4sf3/xf++y8nP0bJoIpyt754Sp18cNtToFP3iRtv4WbhwkKAIw0QizBF+zmac3fmAEyY+Hz0fVzNn+eUypVM003lPnKBUBrepZlznMlA0fKeap9/9TKzbrOSYogiUn2IhBBBODDwBPYPPIlsdIDr1Dc3+ab1oGk5INcB/ZniE0jrgAgCaR80g4CaxKKZ4tis40ALDBTPglBKjKMa9WtBuP2k4ockLf1Q6BRO8KUGYlzZcVUxEKrPHsngyZGXWEujbBZQs7w0Sm/RUphYnpv8iN1TgYslUcBoxcbseBh1exiu4u/k7WexuAMnEkq6oiFZGUA0TOWkHWzbFsXrrz2F/Q/s9C3Yc/3GON5+92MOFCPxGsp0oRP1D54/wqc634uZZeP8X6/gzTdP4sbNEhSF4g/Wr4NAmzllMAwNZXH23A1MTJCLzP/31Q62i3+ztpKiV6TplR8/gUcf8Wc6pu+UrAh/fOcjdvNQQS12+9kuDj9xCN99+lHfKY5kCbp6dQz/9/99gGvXKeYphLpZRkmfBKgeQ7jzWFGRpl19W/HG4R/god0Ub7S2OiCN2dTUDP74zgl+Z6p0Sd86bYKHH6d3fqxBbNc+JFGMzMWxa/jn43/EV1PXYa+m0LaOCRB2NTy95xD+7rs/Rjq+tpuNM7bKVXx6+ku8f/wUqrU6wnoIpFOxa9cwfnL0e+xO8mM9oG5TbMixcyfxm9N/RomsJDCh4wYGh6js88q6OXTYpng6cq17ypp5toqTNT0THkC+PsMW1qv5CyjWKc7EBlnQKZixJy0IbPYKJ3GI/OqRPlye/YJ9ImWjsKA/sNw4Ezui1EKaMGTGXlrAiYgHBW2QQAQFGlocqHbrg6HnRvQ4ByqSGt/VwgXkq1Mc0LbaJs8Fk7IHkAynMVMZY2JAG1M7vm7bsjF7w3NjKMv4lJa+N9V+IKnlQ7nvIKamvFiKRTUXaNOnCdjc9JsxCKR3QDEITc2DZvAiE6WGm2GxFgIRBEMvYT52HdVw6wSh3e/SsVzoYQ2kg8B642vJiTbGuD+6hUWTKC6DRrhqlFhYi3QoZqsTnjWhBeLWbv+NmoP5aRWVClVy9D7QQC5bgTsNhMaSSIe9PO1I2MbTT+/FSz86jKTPUwrNg3y+xHEIE1MzfGolE+iW3AD71P1Ytej9aGF899hpvPX2WVgWaesvjURvz4LgkV1yoajsFlgtYyEInNcmCKQ6auLZZ/bhhy88hmzWn1vAk+QtYnxyGjfHZqBrGkaGBxn3RMJ/eW5KST323mm8e+xLVCqUnUcbwgxqg3mo20ikpPMEgXCOq2G8fOgpvPjIU0gnvCycta6mDPHE5DRujE1D11SMDOdafudKrYq3P/8Ifzx7AnNG2Vdw91p9W+7viXfcm92Gnz33Cu4f3umr3gRbLKt1TM/M4ubYNP85N5jB0LYci4/5yUqhvpCb6NrkKNdiODd6mStXKiA3wBhLLUdIannV69aI0AygGkbpKOW8Kqw0W7VKnPa9+EBNFgblh2/83P0sexRzuYdgs77v2pcOA9vtD7En+mtkskVwcPLa84H2GKi2joFtaVbGW0n0xtukVA6eUFSVzcGesE3wF5vbFM9P77fIj6dx7WHnma/a7ysHtk3XUatQoOLamQyk+HgodwSPDj/HQkk8qIrCZsVmTAFZAui/TQsBnU6oABPFIJD+wWLNhKY1oemiWPh314ahF5BPjKLGBKH9d/Q9imQ8sBxEkmEk+iKsDeH3IosBsWDCg+amV3PCE0ry4rq7c5GGQ2nORWE+Cwu54MSSiFJWFLh/1ZAJDyMcirDs787tKbzyyhHcf/8OX1aEJip0EvX0MLwAV7/EgL8BznO/gd+9+QmuXp2DwhUsly4Q7RGE7ozayk9ZiyAQsXccE9u2xvGTV4/gwIFdvrJImk+keUpKjoS3zmqqPhbWxo9pvK5encBvfvsRLl2eZbcOuSrm66Nw9xhe/IH/5lqCmuIe7xscwU+PvID92/f4siJ05J0dG5fHr+NfPnkX58Yur+heaOllVrrZBRJqGM/texQ/Ofw8Mgl/8RHUXFOIi0gRuTT8EoNmVyr1Kt7/4hR+dfIdFO0qW3Q1zCCVnEF6QEEo7H9tbLa5WG9lpVdWXnz95+7pvt4jCB0Z0E3YCE2ketlCYaIC1YebIaToGEnehwNbDuOe7B6kY6RcqLNpmFwJdDXVExcmqmUtxCCQgiJdtBA1gxVpoVmo8MgKyTZszUA9mkcpOom6nu/KJtusw5DMRj2ZZR8ul14bco5DKFiYn4qh7lC552DdDLihIprPcGAvPZsKBz1xeA9+9OLjGBygcs+tLyStYNqMPXj7nVP46KMLcBxyC327yj0TiVBVE48+soNxHxqimgLB4z43X8SxY5/h+PGvUK1R1oeKqpFHJT4HZacNBOBeWJgbLlkRdDy79xHOZtiaDf6d6VQ9VyrgT59/hHfOn0TBvDM4sZW56+dekuLfns7hlceexWP3HkA84k9V1E/bK91DbpcLN6/gl8f/gIszN+GwzhO5F8bQN1hGPB1guWchCOsZumB+S7UH5kdLbFZay81AE5ZSWShAc2d2H4bSu5GNDrJioG3a7J8lKwCRhKZCGufTzsywBYHSHOnfm3ELlOrIxZlCNOkAWzFhaBWY0RLMaBFGqARL6U41RPLBkimZ3AurVXIMZhQ61CoX4HJQmFFQruRgs5shmM2Cy2NTuuOVMFJqjgONiNxlsyE8+8x+PPnkfo4K91MAp523p3lE/tWPPzmPt94+jWKRzO3LWQ+YqsKPUFI7/QjyN2tbELyn27aBSNjhaprfffZB1jQICndaJ4qFMqc2/vn9LzA1Tf5pSmc2UHQmYd9TA/roGw8SGbaDoz+SwMsPPYNnDjzGwkutWEBa6R29c6FcxMmL5/D22U8wWiTxtmDcJ7f1i0i3q2Df1p149YnncP/wLtZ+COo9TdvCjelxTm08de0CaqTgq7hQ3SJikSlkciYiMX91e1rBd8HKIAShHdiC/Y2n4V9Hea4ONeyVZl7tIpJAm0E63IeB+AiGkjsxnN6FbGwAGrz0smbAYZMAkOXgwoULXIPBq9bomTNZNIk+NM2GpVVR14uo6nmYoTKckAmHXQvBf4jsC6Pic0mdBZJacS8EOzqtt05EpzxvIT+XguluoTIorTfi8xeupQDjCiLTacT1PhYnUhQLuVwMTz25D48+uhd9famWTZxrPZ5cEoViGZ+dvoj3/nyWNylyLaw8d+9ugsDWONtAOq3h2WcP4MjhB1jaORRay1e8FtK3/z19u/l8GWfOXsbx4+cxOlaC61JWhoWKkYeRLQAjAVsPFnVJdYBtqT68cPBJHN57iFUHvQyJzl30zvPlIj67fB5/Pn8KV+bGYZJrN2gC1HgFGluqP/HQPffh+4eO4L6hHVyDYq11uhUE6BmUuXR1agzvnfsEn1z+0qvgyNnvJnRlCqlMAck+JdC1UVwMrYxat+6lU2fdRn6y7AUX+pBXpWlD0aqUoZGJDGAksxvb+/dyCWQSLCK3A/vjAXY/kFASWRCIILC/k+WYAVe1YWp11NQ8uxKIIJhqHY5KxamCJwZNiF2blPcUJPqjiMRb84F3a5j8Poe4jlm1PStCtWlF6OyiudCXpibCDR2xWgbRcJrT1qj8c19/BI88vBuPPLyHzd6k3rbeU60nsGVibHwWp09fxKefXkI+T6ec1VNSFywItRKSKTJHB4SH30HyeR+9b6k0C12PIBolnYOVrUGey85AIqHgkYd34fATD+Cee3KssLhelwNvIIaJqal5nDlzGadOX8YErxeeaBtpxFRDc3DvMaEmXVBB1W5dFI8wEEvjyJ4HcWTvIRYkioTW/85kNaBNc3J+hlUTT146hxv56a6Sg1vfmYsY1TnYsgNP73sYB7bvQSZBwmytxY0sHRMW3LNtlGoVfD16DScunMGZ61+jYhuNMSTrQQGxyCQyAzYiieCsB9Q3IQjd+mpafI4nskOVHWtQNNW3/53LVas64uEUBhPbsDWxE1vi27lSJVWzJKVFmoCUxUAEgeowcOCS6sBWTdiRKmp6HlV1HqZWYb0DKtHczWvBepDQWw5O7GY/W3kWWREqeQuF+TjqNlkRyHcZ0JHHVuDMK9Amw4hZWXZBeTEmFqJRYPeuQRw4sBP37yU53ySruNGGdYsseJUTF19etrBHEMnCxcF0poXZ2QK+vngT5/96DRcujMMwSGjLn8nVMKqo1YpIJqks8tqpca3gHdS9VFeFCEI4HEU0Sqluq4+hRxJMaJqFvfdtxf4HtuP++7djcDDTyDbyg7uHPbVFlhoKAiWtAwoE/eLcFXxzZRrlssPlxGmcqJx9VZ2DlatC6SdrYFBorNyu4rhIaBEcGLkXh7bfh/tHdmEgnYGu6byJcsGkZpXOJc14s8xLb+Z3prlmW8iXi7gwegVnr17EhYkrmK+XuT5JtywHd7wtBRwqGrb35Viq+uCO+7ArN4xIOMJWk6b653IZHQtHrUYRLJeE6hwbVaOGmzMT+OLaJZy7fgk381OoslvBw0RBHbo6jXSGSjyrgVoPhCB0/7tp6YmkiVCaqcGq21ColGcL+wlZCygOgUhBf3wII6ndTBQoPoGKJ81MzbIOwnx+DoZbQ10toR4usBiSSXEGMJgYdCMV8PadCKBMDnIpkPaBHiXrQUuw9ezNlkHFm8hPn4bpDgLwKm8GclG5hjkV2nQUUTuDcChOuqRMElTVRTqlY3goi23D/dg+QsWPMpyLTiZwT1jrToLAkdiUlVGqYnp6HjduTmFsbBajo/MolkzYNgXG+T9BmaaBWq2AcDjOG+5qp/FAMGqxUYo/MM066vUSotEUC1L5ubzYHwr8dZBMhDA0nMXQtizuGckht6WPcWeStiLuXpXJSrnG5YIJ99GbMxgbn8fcXA2OS5h7lgPDqqKu5mENVIABx9On2qjLdRFWQ+iPprBjYBuG+3PYPrANuWw/UlGyajbeeRmCQNYCOsiU6xVMF+ZxfXocN2cncW1mDNOlPAzQwaUHFgbiXyRtroUxkt2Ckb5BbB8cwkh/DtkEWfAiIAG0O3N4vJemVPi6YXCdlbHZKVybHseN2QncnJ9C2aySl3Vh3SfXgubOIZGYQ3oA0CNqS3tCO9NALAjtoNal35AVgZQVqQQ0V4/05Wq41TlPqprUwsJIhfsxEB/CUGIXq1MaBRuXv7mMmfI4Kuo8qvo8EwNbM1mhq+vEoNlthxZTIJ6JcObCek3gXRoqf49xgXrNRmEaqFb7YbEwfoAn5wZJUGciiJgpRLREIybBy0xRFAfhsIJkMoJ4TOeAUJpntO4uVcPzTsLk9lGZJFQqJkqlOgzTy7WnY2qrPliyQlA1RwqmC4Ui0MgNFnC0v7+BuvMuIgc2VzutQtWobHoSmg9BoMUtLSYKoRBV3IwgEQ97pd058+HOeCNOz2WFVxU2WaGqBkolKmtNabvkN/AEwEjcxrArqGlFOP01oN++U7yy3Zdf5+9U3kRJGVdHXyyJZCTOaZD0nfM7L9k+iRw0A6eJGBXrFZYfr1oGLFIZJUR6gBvcBgu/o8pkIR2Oc32LmB5hUs5Bhcu4osgyQu9P31XNqiNfLaFQq8BwLNAKfPs72lCdecTCU0jnXETZtRA8CEIQ1jn5g/65Z5quo1Ko84RplSQ0CSjL9qox1tsmghC2EpiYnMAclYENFWFq1Y0lBh6d5o8llggj3qLuQdDj0Kn2PdJnIT+loGpugaNS4ZcAbcC0gRdUYDKESC2JmE4Bik0XgLcQs+lS8f7cFEq5Y/FpmELZugCFjZ3eCrZ2EO1q2JHJ3jRrIHeDbXtVKnvNktCsFquqVG46wtYOjxy0u0ATzp7bbjHunsX99jYXj4fnJlqMuZeaTASLYg7qkRLcnAklu8GWg5UGnAjBwvxh/0Fj/tz+gwV3VvNeIqe9SApWeE+K8eavhFPE6Sb6P26nQfzVOS67jr3vqfH9LTulHKhOAVF9Aql+G7EUZZh1J6hECEKnVv4A27EMmzMayJpAe0m7k4MmIhEFUl8MI4qaUYfpVGGrVuClj9eEhywHFqDHNSQHYsvWNl+zjU1yA5GgeslCfpJMwltgaX3BWhJIZbECKNMalIKOCFJc54TrvfOG1O5G1xnAPeuEp4/fy1dTYXTjCUwjHsG1YJg11FGAnTSAQRtKgqZSb+PYy2Pce32zodoFRPRxpPrdhuZBd8gB81VJc+y9KbG0R7RuEkmgeASjZkLRlLZJgmdR8E59fGLsYmbCikgTObCBUERDKnd3k4MmBkwSyhaK0y6qZj9sdjespBmw/jlKcaaUAumSPP+MCrUSQlhJQVejXMCFTaCNE9v6nyYtdB4BjxTQSZqCHkldto4SnLAJDDogeQ1X74LWQedfTFpcEQETIWcOIXUCmS0aYsmQV+W3i5cQhC6CvZ5Hcapc3UJ53oBZNT3TVJcny3r6v+xv2c7msmuBghET/bG2JEM73q8uNUgmRpMCF2cc1KpxmE4/HIWyG9Zjvl6j87bC+hIOiWzmVSglBapNVe7CUN0Q2Zj479l1usQs2iVY5DENBDyXD0DcjQKGbZBv2oCjWEDCBdIOFEqkoOlCuYVy3QUI0DjaUN06dGUO4UgRqQEXkVjIdyZbJ0EQgtBJNANuiy0Jpo1qwYBRMb3Fg1MUu8sqO/GavPhZFLyjcJXGWDZyV7sVVsKM9aBMB5WChWoxBMNOw3aTLKbkLhCFzo8vzx0SVSIyYABuXaHicABVhSQ9liYB7fyjOzF97v42Gil+RJ45E4EIAP0z4kKJAC6FrYTEYnB3TIQmubOhoAYNZYRDBcQTJmIZDSEfYnlB4SAEIShkA2yXopnrJRPVogHbpLQ1Be4yEdABdqH9ptli4OU3UyxFNKUjmtCh6QEG6rXf2679klI7zZqDasmFUdNRNxNw3CgcUl10w3AbIleBxAvQ+kQC7811qvHPDcsv7xrqPf6gxjgsxC3yYaAHI/h7HMbe7N4tUqDCpJqKUFGDrpcRiRqIJhSEY8GqJPrBRQiCH5R68B42T9dt1EomrEbZ24X89QURkh7peOM0xFG7tMZpKrsUIokQl3BuN+iyR96uY93w5HlpXF0YVQemocI0IrDMCGzOdScSpcFlPYPmY+WI37EBkIYEgaARUGgNpFLNNijwSlFs6CEDeriOkG4jHKO1kQSQPBffRl9CEDZ6BNbzfDqME1GoWTCqFhMGKtDk+S09YaXmHPO25u5c9CQOfvQy6LzodCpFr6tMCPRYiAkCBdz0wkfQHVT8P6Xpe3ZML0bBMhU4lpf37tikVaCAs+ToiC9xAv6BlTsFgQ1FgBZm0hKh9EbStaE/07pIAdpEChSON+mlNVEIwoZOmM48nPdfx+VMB7PuwDYsWCZtLLa3kSwQBcpcaCqcdjCoiTYszqVvvI8Xd8ihESFd8ya/HoIeVqCFvdKkvfQRdGYUAmiFeRX9T7MUtzfOTcLlxaB0j/gF8IbSpCDw7UKALAhE6tWGSBRbe+n41ppSbrdAE4LQLaS78RzemCll0IVtOSxZ7JC/33Z5YyFrQyCbSsNKQGyYGTBJi1IqpkrpmJ4fTQ015EZlP1vfTOggr1tfR+TXgoAg0DYCm2QdFILQ9gj3+A8bFn7qpXfibBQ/CUAWp7lneUpwjVNt0/S9ST6EHh9N6Z4gIAgIAl1HYGMIwtY00oOxDcnr7DrC8kBBQBAQBAQBQWATItB9gmDp6M+lkN4av7sK8WzCwZcuCwKCgCAgCAgCKyHQdYIAU0O2L4m+4WTgtaxl2AUBQUAQEAQEAUGgPQSUH73xD+6p7FHM5R6ErfkrHq7DwHb7Q+yJ/hqZbBGqT2VYqnJFevCRUAT9QynEkvraOfAc3Nm9CM+F/PIeLxzT3nDLrwQBQUAQaCIQZIDQZoymDRKPzTnrlJf+wz+6p9IvYbYLBIEhcgDFVhEJR5DIRBEKkwDMyuBRSogeCSEc1YKNWaAMANuBUbdhGZRz7pVjlUsQEAQEgbsGAU6JpkMXFXi4a95KXiQgBLpPEBokAbbCNdW11eoIcLlwBdFoGMlsDLFUGGooAJbXrHFQNFCer6FumF7UfwCPCmgcpVlBQBAQBFZGoFEYzTZd2BUVajUCxdIXSEIgVV03EwGRtX7ZubMxBIG6siDYs8pXzdl5CjRHRVgPIz2QQKIvyopTHbsa5KCSr6EwW0XdqMNlvXMhCB3DWBoSBASBjUWgkelsGw6MWQWYTEArJdmay0XfA3CpBtFmUCCK4NjyyG4cQWhlpGmvthVE9AiygynEs5GOkQRSG6zM11CYq6BmGFxWlaxvcgkCgoAgcLchQIJpRsGFNRqBNpOGaupMDoLYzINoM6jxEIKwmQlCw+KgcuxCFBmyJGQj63Y3kDQxWQ7ysxXUzablIKgpKO0KAoKAILCxCJChwCzbMMdD0CYzUOvRW/LdHe6aEIQOA7oBzW0OC0ITGLYkqIjoYbYkJLIUk9DecZ9qFZTmaijOllGz6lJGdQMmnzxSEBAEuowAuVQrDozxENSJNNR6hIMWg9jMg2gzKLTEgrDZLQiLSYJFJCGKbC6OWDrspUr6CUtgP5vCJXXL+TryUyXUrTrc0KJCQ0HNQGlXEBAEBIGNRoAIQtWBMUYEgSwIRBDExSAE4W4hCA13g2IpCGlhRGNhhGOkp7B6yCwFO7qWV3+4XjVRr1mwHAOOkIONXrLk+YKAINAtBBoEwRwLQRGCsIC6EIS7iSCQHYDzeRVQuiQZDxq1Atf8zBy4cKgmt+Y14vqxPKzZqtwgCAgCgsAmQEAIwrKDJAThLiMIzdchotCy4IcCIQabYC2TLgoCgkCHERCCIAShhSm1uYIUW3gxuVUQEAQEAUFgCQJCEIQgtPBRCEFoASy5VRAQBASBTY2AEAQhCC1MYCEILYAltwoCgoAgsKkREIIgBKGFCSwEoQWw5FZBQBAQBDY1AkIQhCC0MIGFILQAltwqCAgCgsCmRkAIghCEFiawEIQWwJJbBQFBQBDY1AgIQRCC0MIEFoLQAlhyqyAgCAgCmxoBIQhCEFqYwEIQWgBLbhUEBAFBYFMjIARBCEILE1gIQgtgya2CgCAgCGxqBIQgCEFoYQILQWgBLLlVEBAEBIFNjYAUaxKC0MIEVl766T+6pzIvYTb3IGxN9/VTHQa22x9iT/TXyGSLUENcJFEuQUAQEAQEgV5GYDFBGG+Ue6a6NlzptrNXEG12toe3WpNaDMsjq/zop//Z/SzzMmaEIAQ196RdQUAQEAR6A4FFBEEZS0Oph1uvZePzTYIiCLKZ+xyADtymvPjTf3A/zxwVgtABMKUJQUAQEAR6GoEGQahTueexFJRacAQhCBw2IzkIiigFge/SNtdBED7Anui/iIuhG6MkzxAEBAFBoBMINAnCqAZlPC0EoROYrtHGt5Ig7LCP4b7or5HKVqHqEoDQhXkmjxAEBAFBYH0IuIBZtlEf16BMpKBWo4G5GNbX0eV/LRaEIFBduc22LAghGBixj2NvhCwIeWjh7nZaniYICAKCgCDQOgIUi2iVHRijGjBBQYriYmgdxdZ+8a2zIKiwkLPPY4/6WwxmLyESd6CIEaG1WSN3CwKCgCDQZQRcBzDmHZg3IlBnk1BMSkHbPJdYELo7Vm1ZEMgmFXOL2Gm/i5HIMSRTBWihFUhCM3tGdaERi1C7lBJJqTu2C8chQBVJw+zuvJKnCQKCQNsIdD7lUKEmyXpQc2BOh4DJBNQyuRc218lOCELbk6qtH7ZJEAANNtL2JLY6nyCD89CVIhTa/Jderg1FcaCHTMSiZYTjJkhuITCLgwvYNmBUQ6hW4zAMHY6rQVG6x5SXg6Gt0QnoR421IqDWpdmgEOj1eRXUe38b2uVzDB1lXBuaU4fuVKC5hrer33a1SR7oAa4Ct65CK8ahVqKAs/lmlBCE7n4NbRME6qYGB7pbQ8yZRdSZgwKahYsZqcsTXoGNMArIKH/FYPQCEqkC9FgAJIHIgeGiXIpjpnwv5pwHUMMAXIThKv5EoLoLvzxNEBAEBIEmAnTENxGqzSBXuYRB8yp0t347SWiLH7ig2APFVQFbg2Krm85y0ERICEJ3v5Z1EYSFQYMDjYnAypcKGwlnCkPOB9ga/hjpTL6zJKFBDoqFGKYqBzGq/ADz2k6iMF3yaXR34ORpgoAgcPch4MCFapaxZfY89hQ/Qcaa4APWAoVggtAWS/DWwXZ/2iNQC0Ho7kB0hCD47TK5JVL2OIadDzEUOY50Oo9QJywJi8jBZPlhjKvPYkbbC1OJ+O2a3CcICAKCQE8goDom0oVruHf2OIbqX0FzzUUEYZPv8OtEWAjCOgFs8eddJQjUN48kTGPY+QBDkfeRTs8jFFWWj1/w8zJEDuoOyHIwUXkMN9Xnkdd2Cjnwg53cIwgIAj2HgOraiJfGcO/McWyvnm3EInjd3Mwpc50AWghCJ1D030bXCQJ1jdwNKWcGI/b7GI68i2S6DD2KlkkCpezYpoNSPoap8oO4ob2EWW0nbIk38D8D5E5BQBDoKQRU10GsPIY90x8KQVgyMkIQujtVN4QgeCTBQYpjEo5jW+gEkolZ6BETqkomtLVSbyjoRoFlqKiUY5isPYZx9XuYCe2EzTEHcgkCgoAgsDkREIKw8rgJQejunN4wgkCvSVkPUaeAnPsVcs5JJNRrUBSTwnRWIQkuB+24CKFm5zCHBzGhPYyyuhU2upfK2N1hkqcJAoLAtwUBIQhCEHplrm8oQfBAcKHBRNQtQYfBU2SiVAAAAwVJREFUlgU/FgS6h6wFVSRgKlEQbZBLEBAEBIHNjoAQBCEIvTKHe4Ag9AoU0g9BQBAQBDYeASEIQhA2fhZ6PRCC0CsjIf0QBAQBQYDisyRIccV5IDEI3f1EhCB0F295miAgCAgCqyIgBEEsCL3yiQhB6JWRkH4IAoKAICAWhFXngFgQuvuJCEHoLt7yNEFAEBAExILQ5hwQgtAmcG3+TAhCm8DJzwQBQUAQCAIBcTEEgaq4LdpBVQhCO6jJbwQBQUAQCAgBIQgBAbtKs2KZWB4cIQjdn4vyREFAEBAEVkRACEL3J4cQBCEI3Z918kRBQBAQBFpEQAhCi4B14HYhCEIQOjCNpAlBQBAQBIJFQAhCsPgu17oQBCEI3Z918kRBQBAQBFpEQAhCi4B14HYhCEIQOjCNpAlBQBAQBIJFQAhCsPiKBcE/vhKk6B8ruVMQEAQEgcAREIIQOMR3PEAsCGJB6P6skycKAoKAINAiAkIQWgSsA7cLQViFIHyWOYrZ3IOwNb0DUEsTgoAgIAgIAu0icIsgHMf26hlorrHQlOu67TYrv1sFASEIqxKElzCTexCOFpFJJAgIAoKAILCBCKiOjXh5DPfOEEE4KwShC2MhBGEFgvCjN37mnk9/H+ODD8MKJ+FC6cJwyCMEAUFAEBAElkNAcUxkC99gz+xxbK1/Dc21xIIQ8FQRgrACQTj6+t+4o7GDuJp5HIXUPXC0MFMEoQkBz0hpXhAQBASBpQi4DmAUMTxzFnvLJ5G0pqHAEYIQ8EwRgrACQfjJa2+4FS2Lm7EDmIrfi0okC1vVoSoKFGEJAU9LaV4QEAT8IkDed9vvzS3cp1KJ5RbuD+JWCi1QXBdhs4R4ZQI7Kl9gwLyK0KL4A3quxCAEgT4gBGEFgvDaa6+5LjTU1QQKoRwKeg6WEoG6iLX6HxIJoPGPVSt3biamJnOglZH1f28wc2DzLIw0r1z+D/+3UxebS4OwmXp9baWrHJxoF5A2xxF38tBc846XFYLQqYG/vZ3N8x3c6nc35sL/B05v1ftNG+KfAAAAAElFTkSuQmCC;shadow=0;" vertex="1" parent="1">
                    <mxGeometry x="140" y="240" width="520" height="200" as="geometry"/>
                </mxCell>
                <mxCell id="7" value="" style="rounded=0;whiteSpace=wrap;html=1;shadow=0;fillColor=none;strokeColor=#FF0000;strokeWidth=5;" vertex="1" parent="1">
                    <mxGeometry x="190" y="280" width="110" height="50" as="geometry"/>
                </mxCell>
                <mxCell id="8" value="" style="endArrow=classic;html=1;exitX=1;exitY=0.5;exitDx=0;exitDy=0;fillColor=#d80073;strokeColor=#FF0000;strokeWidth=5;" edge="1" parent="1" source="7">
                    <mxGeometry width="50" height="50" relative="1" as="geometry">
                        <mxPoint x="540" y="320" as="sourcePoint"/>
                        <mxPoint x="387" y="343" as="targetPoint"/>
                    </mxGeometry>
                </mxCell>
            </root>
        </mxGraphModel>
    </diagram>
</mxfile>